<?xml version="1.0" encoding="UTF-8" standalone="no"?>
<svg
   viewBox="0 0 793.7007874015749 1122.5196850393702"
   width="793.7007874015749"
   height="1122.5196850393702"
   version="1.1"
   id="svg367"
   sodipodi:docname="pcb_outlines_wout switches.svg"
   inkscape:version="1.1.2 (0a00cf5339, 2022-02-04, custom)"
   xmlns:inkscape="http://www.inkscape.org/namespaces/inkscape"
   xmlns:sodipodi="http://sodipodi.sourceforge.net/DTD/sodipodi-0.dtd"
   xmlns="http://www.w3.org/2000/svg"
   xmlns:svg="http://www.w3.org/2000/svg">
  <sodipodi:namedview
     id="namedview369"
     pagecolor="#ffffff"
     bordercolor="#666666"
     borderopacity="1.0"
     inkscape:pageshadow="2"
     inkscape:pageopacity="0.0"
     inkscape:pagecheckerboard="0"
     showgrid="false"
     inkscape:zoom="0.69842875"
     inkscape:cx="441.70576"
     inkscape:cy="1123.9514"
     inkscape:window-width="1852"
     inkscape:window-height="980"
     inkscape:window-x="30"
     inkscape:window-y="57"
     inkscape:window-maximized="1"
     inkscape:current-layer="g365" />
  <desc
     id="desc25">pcb_outlines.dxf - scale = 1.0, origin = (0.0, 0.0), method = manual</desc>
  <defs
     id="defs39">
    <marker
       id="DistanceX"
       orient="auto"
       refX="0.0"
       refY="0.0"
       style="overflow:visible">
      <path
         d="M 3,-3 L -3,3 M 0,-5 L  0,5"
         style="stroke:#000000; stroke-width:0.5"
         id="path27" />
    </marker>
    <pattern
       id="Hatch"
       patternUnits="userSpaceOnUse"
       width="8"
       height="8"
       x="0"
       y="0">
      <path
         d="M8 4 l-4,4"
         stroke="#000000"
         stroke-width="0.25"
         linecap="square"
         id="path30" />
      <path
         d="M6 2 l-4,4"
         stroke="#000000"
         stroke-width="0.25"
         linecap="square"
         id="path32" />
      <path
         d="M4 0 l-4,4"
         stroke="#000000"
         stroke-width="0.25"
         linecap="square"
         id="path34" />
    </pattern>
    <symbol
       id="*MODEL_SPACE" />
    <symbol
       id="*PAPER_SPACE" />
  </defs>
  <g
     inkscape:groupmode="layer"
     inkscape:label="0"
     id="g365">
    <path
       d="M 1116.000000,1133.858268 L 1116.000000,1471.181102 A 11.338583,11.338583 0.0 0 1 1104.661417,1482.519685 L 11.338583,1482.519685 A 11.338583,11.338583 0.0 0 1 0.000000,1471.181102 L 0.000000,1133.858268 A 11.338583,11.338583 0.0 0 1 11.338583,1122.519685 L 121.606299,1122.519685 A 2.834646,2.834646 0.0 0 0 124.440945,1119.685039 L 124.440945,1114.015748 A 2.834646,2.834646 0.0 0 1 127.275591,1111.181102 L 144.000000,1111.181102 L 160.724409,1111.181102 A 2.834646,2.834646 0.0 0 1 163.559055,1114.015748 L 163.559055,1119.685039 A 2.834646,2.834646 0.0 0 0 166.393701,1122.519685 L 1104.661417,1122.519685 A 11.338583,11.338583 0.0 0 1 1116.000000,1133.858268 z"
       style="fill:none;stroke:#000000"
       id="path231" />
    <path
       d="M 60.566929,1132.062992 L 11.433071,1132.062992 A 1.889764,1.889764 0.0 0 0 9.543307,1133.952756 L 9.543307,1183.086614 A 1.889764,1.889764 0.0 0 0 11.433071,1184.976378 L 60.566929,1184.976378 A 1.889764,1.889764 0.0 0 0 62.456693,1183.086614 L 62.456693,1133.952756 A 1.889764,1.889764 0.0 0 0 60.566929,1132.062992 z"
       style="fill:none;stroke:#000000"
       id="path283" />
  </g>
</svg>
