0
SECTION
2
HEADER
9
$INSUNITS
70
4
9
$ACADVER
1
AC1014
9
$HANDSEED
5
FFFF
0
ENDSEC
0
SECTION
2
TABLES
0
TABLE
2
VPORT
5
8
100
AcDbSymbolTable
0
ENDTAB
0
TABLE
2
LTYPE
5
5
100
AcDbSymbolTable
0
LTYPE
5
14
100
AcDbSymbolTableRecord
100
AcDbLinetypeTableRecord
2
BYBLOCK
70
0
0
LTYPE
5
15
100
AcDbSymbolTableRecord
100
AcDbLinetypeTableRecord
2
BYLAYER
70
0
0
ENDTAB
0
TABLE
2
LAYER
5
2
100
AcDbSymbolTable
70
2
0
LAYER
5
50
100
AcDbSymbolTableRecord
100
AcDbLayerTableRecord
2
0
70
0
6
CONTINUOUS
0
ENDTAB
0
TABLE
2
STYLE
5
3
100
AcDbSymbolTable
70
1
0
STYLE
5
11
100
AcDbSymbolTableRecord
100
AcDbTextStyleTableRecord
2
STANDARD
70
0
0
ENDTAB
0
TABLE
2
VIEW
5
6
100
AcDbSymbolTable
70
0
0
ENDTAB
0
TABLE
2
UCS
5
7
100
AcDbSymbolTable
70
0
0
ENDTAB
0
TABLE
2
APPID
5
9
100
AcDbSymbolTable
70
2
0
APPID
5
12
100
AcDbSymbolTableRecord
100
AcDbRegAppTableRecord
2
ACAD
70
0
0
ENDTAB
0
TABLE
2
DIMSTYLE
5
A
100
AcDbSymbolTable
70
1
0
ENDTAB
0
TABLE
2
BLOCK_RECORD
5
1
100
AcDbSymbolTable
70
1
0
BLOCK_RECORD
5
1F
100
AcDbSymbolTableRecord
100
AcDbBlockTableRecord
2
*MODEL_SPACE
0
BLOCK_RECORD
5
1B
100
AcDbSymbolTableRecord
100
AcDbBlockTableRecord
2
*PAPER_SPACE
0
ENDTAB
0
ENDSEC
0
SECTION
2
BLOCKS
0
BLOCK
5
20
100
AcDbEntity
100
AcDbBlockBegin
2
*MODEL_SPACE
0
ENDBLK
5
21
100
AcDbEntity
100
AcDbBlockEnd
0
BLOCK
5
1C
100
AcDbEntity
100
AcDbBlockBegin
2
*PAPER_SPACE
0
ENDBLK
5
1D
100
AcDbEntity
100
AcDbBlockEnd
0
ENDSEC
0
SECTION
2
ENTITIES
0
LWPOLYLINE
5
100
100
AcDbEntity
8
0
100
AcDbPolyline
90
8
70
1
43
0.0
10
254.15000000000003
20
-2.5249999999999928
42
-0.41421356237309503
10
254.65000000000003
20
-3.0249999999999999
10
254.65000000000003
20
-16.024999999999999
42
-0.41421356237309503
10
254.15000000000003
20
-16.524999999999999
10
241.15000000000003
20
-16.525000000000006
42
-0.41421356237309503
10
240.65000000000001
20
-16.024999999999999
10
240.65000000000001
20
-3.0249999999999999
42
-0.41421356237309503
10
241.15000000000003
20
-2.5249999999999999
0
LWPOLYLINE
5
101
100
AcDbEntity
8
0
100
AcDbPolyline
90
8
70
1
43
0.0
10
260.19999999999999
20
-16.525000000000006
42
-0.41421356237309503
10
259.69999999999999
20
-16.024999999999999
10
259.69999999999999
20
-3.0249999999999999
42
-0.41421356237309503
10
260.19999999999999
20
-2.5249999999999999
10
273.19999999999999
20
-2.5249999999999928
42
-0.41421356237309503
10
273.69999999999999
20
-3.0249999999999999
10
273.69999999999999
20
-16.024999999999999
42
-0.41421356237309503
10
273.19999999999999
20
-16.524999999999999
0
LWPOLYLINE
5
102
100
AcDbEntity
8
0
100
AcDbPolyline
90
8
70
1
43
0.0
10
226.07500000000002
20
-16.024999999999999
10
226.07500000000002
20
-3.0249999999999999
42
0.41421356237309503
10
225.57500000000002
20
-2.5249999999999999
10
212.57499999999999
20
-2.5249999999999999
42
0.41421356237309503
10
212.07499999999999
20
-3.0249999999999999
10
212.07499999999999
20
-16.024999999999999
42
0.41421356237309503
10
212.57499999999999
20
-16.524999999999999
10
225.57500000000002
20
-16.525000000000002
42
0.41421356237309503
0
LWPOLYLINE
5
103
100
AcDbEntity
8
0
100
AcDbPolyline
90
8
70
1
43
0.0
10
16.024999999999999
20
-21.574999999999996
42
-0.41421356237309503
10
16.525000000000002
20
-22.074999999999999
10
16.524999999999999
20
-35.075000000000003
42
-0.41421356237309503
10
16.024999999999999
20
-35.575000000000003
10
3.0249999999999999
20
-35.575000000000003
42
-0.41421356237309503
10
2.5249999999999999
20
-35.075000000000003
10
2.5250000000000017
20
-22.074999999999999
42
-0.41421356237309503
10
3.0249999999999999
20
-21.575000000000003
0
LWPOLYLINE
5
104
100
AcDbEntity
8
0
100
AcDbPolyline
90
8
70
1
43
0.0
10
292.75
20
-16.024999999999999
10
292.75
20
-3.0249999999999999
42
0.41421356237309503
10
292.25
20
-2.5249999999999999
10
279.25
20
-2.5249999999999999
42
0.41421356237309503
10
278.75
20
-3.0249999999999999
10
278.75
20
-16.024999999999999
42
0.41421356237309503
10
279.25
20
-16.525000000000002
10
292.25
20
-16.525000000000002
42
0.41421356237309503
0
LWPOLYLINE
5
105
100
AcDbEntity
8
0
100
AcDbPolyline
90
8
70
1
43
0.0
10
92.724999999999994
20
-35.075000000000003
10
92.725000000000009
20
-22.074999999999999
42
0.41421356237309503
10
92.224999999999994
20
-21.575000000000003
10
79.224999999999994
20
-21.575000000000003
42
0.41421356237309503
10
78.724999999999994
20
-22.074999999999999
10
78.724999999999994
20
-35.075000000000003
42
0.41421356237309503
10
79.224999999999994
20
-35.575000000000003
10
92.224999999999994
20
-35.575000000000003
42
0.41421356237309503
0
LWPOLYLINE
5
106
100
AcDbEntity
8
0
100
AcDbPolyline
90
8
70
1
43
0.0
10
117.32500000000002
20
-35.57500000000001
42
-0.41421356237309503
10
116.82500000000002
20
-35.075000000000003
10
116.82500000000002
20
-22.074999999999999
42
-0.41421356237309503
10
117.32500000000002
20
-21.575000000000003
10
130.32499999999999
20
-21.574999999999992
42
-0.41421356237309503
10
130.82499999999999
20
-22.074999999999999
10
130.82499999999999
20
-35.075000000000003
42
-0.41421356237309503
10
130.32499999999999
20
-35.575000000000003
0
LWPOLYLINE
5
107
100
AcDbEntity
8
0
100
AcDbPolyline
90
8
70
1
43
0.0
10
135.87500000000003
20
-22.074999999999999
42
-0.41421356237309503
10
136.375
20
-21.575000000000003
10
149.375
20
-21.574999999999992
42
-0.41421356237309503
10
149.875
20
-22.074999999999999
10
149.875
20
-35.075000000000003
42
-0.41421356237309503
10
149.375
20
-35.575000000000003
10
136.375
20
-35.57500000000001
42
-0.41421356237309503
10
135.875
20
-35.075000000000003
0
LWPOLYLINE
5
108
100
AcDbEntity
8
0
100
AcDbPolyline
90
8
70
1
43
0.0
10
73.174999999999997
20
-21.575000000000003
42
-0.41421356237309503
10
73.674999999999997
20
-22.074999999999999
10
73.674999999999997
20
-35.075000000000003
42
-0.41421356237309503
10
73.174999999999997
20
-35.575000000000003
10
60.174999999999997
20
-35.575000000000003
42
-0.41421356237309503
10
59.675000000000004
20
-35.075000000000003
10
59.675000000000004
20
-22.074999999999999
42
-0.41421356237309503
10
60.174999999999997
20
-21.575000000000003
0
LWPOLYLINE
5
109
100
AcDbEntity
8
0
100
AcDbPolyline
90
8
70
1
43
0.0
10
193.02500000000003
20
-3.0249999999999999
42
-0.41421356237309503
10
193.52500000000003
20
-2.5249999999999999
10
206.52500000000003
20
-2.5249999999999928
42
-0.41421356237309503
10
207.02500000000001
20
-3.0249999999999999
10
207.02500000000003
20
-16.024999999999999
42
-0.41421356237309503
10
206.52500000000003
20
-16.524999999999999
10
193.52500000000003
20
-16.525000000000006
42
-0.41421356237309503
10
193.02500000000003
20
-16.024999999999999
0
LWPOLYLINE
5
110
100
AcDbEntity
8
0
100
AcDbPolyline
90
8
70
1
43
0.0
10
35.075000000000003
20
-35.575000000000003
10
22.074999999999999
20
-35.575000000000003
42
-0.41421356237309503
10
21.575000000000003
20
-35.075000000000003
10
21.575000000000003
20
-22.074999999999999
42
-0.41421356237309503
10
22.074999999999999
20
-21.575000000000003
10
35.075000000000003
20
-21.575000000000003
42
-0.41421356237309503
10
35.575000000000003
20
-22.074999999999999
10
35.575000000000003
20
-35.075000000000003
42
-0.41421356237309503
0
LWPOLYLINE
5
111
100
AcDbEntity
8
0
100
AcDbPolyline
90
8
70
1
43
0.0
10
40.625
20
-22.074999999999999
42
-0.41421356237309503
10
41.125
20
-21.575000000000003
10
54.125000000000007
20
-21.575000000000003
42
-0.41421356237309503
10
54.625
20
-22.074999999999999
10
54.625
20
-35.075000000000003
42
-0.41421356237309503
10
54.125000000000007
20
-35.575000000000003
10
41.125
20
-35.575000000000003
42
-0.41421356237309503
10
40.625
20
-35.075000000000003
0
LWPOLYLINE
5
112
100
AcDbEntity
8
0
100
AcDbPolyline
90
8
70
1
43
0.0
10
111.77500000000002
20
-35.075000000000003
42
-0.41421356237309503
10
111.27500000000001
20
-35.575000000000003
10
98.275000000000006
20
-35.57500000000001
42
-0.41421356237309503
10
97.77500000000002
20
-35.075000000000003
10
97.775000000000006
20
-22.074999999999999
42
-0.41421356237309503
10
98.275000000000006
20
-21.575000000000003
10
111.27500000000001
20
-21.574999999999992
42
-0.41421356237309503
10
111.77500000000002
20
-22.074999999999999
0
LWPOLYLINE
5
113
100
AcDbEntity
8
0
100
AcDbPolyline
90
8
70
1
43
0.0
10
226.07500000000002
20
-35.075000000000003
10
226.07500000000002
20
-22.074999999999999
42
0.41421356237309503
10
225.57500000000002
20
-21.575000000000003
10
212.57499999999999
20
-21.575000000000003
42
0.41421356237309503
10
212.07499999999999
20
-22.074999999999999
10
212.07499999999999
20
-35.075000000000003
42
0.41421356237309503
10
212.57499999999999
20
-35.575000000000003
10
225.57500000000002
20
-35.575000000000003
42
0.41421356237309503
0
LWPOLYLINE
5
114
100
AcDbEntity
8
0
100
AcDbPolyline
90
8
70
1
43
0.0
10
187.47499999999999
20
-35.575000000000003
10
174.47500000000002
20
-35.57500000000001
42
-0.41421356237309503
10
173.97500000000002
20
-35.075000000000003
10
173.97500000000002
20
-22.074999999999999
42
-0.41421356237309503
10
174.47500000000002
20
-21.575000000000003
10
187.47499999999999
20
-21.574999999999992
42
-0.41421356237309503
10
187.97499999999999
20
-22.074999999999999
10
187.97499999999999
20
-35.075000000000003
42
-0.41421356237309503
0
LWPOLYLINE
5
115
100
AcDbEntity
8
0
100
AcDbPolyline
90
8
70
1
43
0.0
10
54.625
20
-54.125000000000007
10
54.625
20
-41.125
42
0.41421356237309503
10
54.125000000000007
20
-40.625
10
41.125
20
-40.625
42
0.41421356237309503
10
40.625
20
-41.125
10
40.625
20
-54.125000000000007
42
0.41421356237309503
10
41.125
20
-54.625
10
54.125000000000007
20
-54.625
42
0.41421356237309503
0
LWPOLYLINE
5
116
100
AcDbEntity
8
0
100
AcDbPolyline
90
8
70
1
43
0.0
10
168.92500000000001
20
-35.075000000000003
42
-0.41421356237309503
10
168.42500000000001
20
-35.575000000000003
10
155.42500000000001
20
-35.57500000000001
42
-0.41421356237309503
10
154.92500000000001
20
-35.075000000000003
10
154.92500000000004
20
-22.074999999999999
42
-0.41421356237309503
10
155.42500000000001
20
-21.575000000000003
10
168.42500000000001
20
-21.574999999999992
42
-0.41421356237309503
10
168.92500000000001
20
-22.074999999999999
0
LWPOLYLINE
5
117
100
AcDbEntity
8
0
100
AcDbPolyline
90
8
70
1
43
0.0
10
254.15000000000003
20
-21.574999999999992
42
-0.41421356237309503
10
254.65000000000003
20
-22.074999999999999
10
254.65000000000003
20
-35.075000000000003
42
-0.41421356237309503
10
254.15000000000003
20
-35.575000000000003
10
241.15000000000003
20
-35.57500000000001
42
-0.41421356237309503
10
240.65000000000001
20
-35.075000000000003
10
240.65000000000001
20
-22.074999999999999
42
-0.41421356237309503
10
241.15000000000003
20
-21.575000000000003
0
LWPOLYLINE
5
118
100
AcDbEntity
8
0
100
AcDbPolyline
90
8
70
1
43
0.0
10
16.524999999999999
20
-54.125000000000007
10
16.525000000000002
20
-41.125
42
0.41421356237309503
10
16.024999999999999
20
-40.625
10
3.0249999999999999
20
-40.625
42
0.41421356237309503
10
2.5249999999999999
20
-41.125
10
2.5249999999999999
20
-54.125000000000007
42
0.41421356237309503
10
3.0249999999999999
20
-54.625
10
16.024999999999999
20
-54.625
42
0.41421356237309503
0
LWPOLYLINE
5
119
100
AcDbEntity
8
0
100
AcDbPolyline
90
8
70
1
43
0.0
10
292.25
20
-21.575000000000003
10
279.25
20
-21.575000000000003
42
0.41421356237309503
10
278.75
20
-22.074999999999999
10
278.75
20
-35.075000000000003
42
0.41421356237309503
10
279.25
20
-35.575000000000003
10
292.25
20
-35.575000000000003
42
0.41421356237309503
10
292.75
20
-35.075000000000003
10
292.75
20
-22.074999999999999
42
0.41421356237309503
0
LWPOLYLINE
5
120
100
AcDbEntity
8
0
100
AcDbPolyline
90
8
70
1
43
0.0
10
207.02500000000001
20
-35.075000000000003
10
207.02500000000003
20
-22.074999999999999
42
0.41421356237309503
10
206.52500000000003
20
-21.575000000000003
10
193.52500000000003
20
-21.575000000000003
42
0.41421356237309503
10
193.02500000000003
20
-22.074999999999999
10
193.02500000000003
20
-35.075000000000003
42
0.41421356237309503
10
193.52500000000003
20
-35.575000000000003
10
206.52500000000003
20
-35.575000000000003
42
0.41421356237309503
0
LWPOLYLINE
5
121
100
AcDbEntity
8
0
100
AcDbPolyline
90
8
70
1
43
0.0
10
35.575000000000003
20
-54.125000000000007
10
35.575000000000003
20
-41.125
42
0.41421356237309503
10
35.075000000000003
20
-40.625
10
22.074999999999999
20
-40.625
42
0.41421356237309503
10
21.575000000000003
20
-41.125
10
21.575000000000003
20
-54.125000000000007
42
0.41421356237309503
10
22.074999999999999
20
-54.625
10
35.075000000000003
20
-54.625
42
0.41421356237309503
0
LWPOLYLINE
5
122
100
AcDbEntity
8
0
100
AcDbPolyline
90
8
70
1
43
0.0
10
273.19999999999999
20
-21.574999999999992
42
-0.41421356237309503
10
273.69999999999999
20
-22.074999999999999
10
273.69999999999999
20
-35.075000000000003
42
-0.41421356237309503
10
273.19999999999999
20
-35.575000000000003
10
260.19999999999999
20
-35.57500000000001
42
-0.41421356237309503
10
259.69999999999999
20
-35.075000000000003
10
259.69999999999999
20
-22.074999999999999
42
-0.41421356237309503
10
260.19999999999999
20
-21.575000000000003
0
LWPOLYLINE
5
123
100
AcDbEntity
8
0
100
AcDbPolyline
90
8
70
1
43
0.0
10
97.77500000000002
20
-54.125000000000007
10
97.775000000000006
20
-41.125
42
-0.41421356237309503
10
98.275000000000006
20
-40.625
10
111.27500000000001
20
-40.624999999999993
42
-0.41421356237309503
10
111.77500000000002
20
-41.125
10
111.77500000000002
20
-54.125000000000007
42
-0.41421356237309503
10
111.27500000000001
20
-54.625
10
98.275000000000006
20
-54.625000000000014
42
-0.41421356237309503
0
LWPOLYLINE
5
124
100
AcDbEntity
8
0
100
AcDbPolyline
90
8
70
1
43
0.0
10
154.92500000000004
20
-41.125
42
-0.41421356237309503
10
155.42500000000001
20
-40.625
10
168.42500000000001
20
-40.624999999999993
42
-0.41421356237309503
10
168.92500000000001
20
-41.125
10
168.92500000000001
20
-54.125000000000007
42
-0.41421356237309503
10
168.42500000000001
20
-54.625
10
155.42500000000001
20
-54.625000000000014
42
-0.41421356237309503
10
154.92500000000001
20
-54.125000000000007
0
LWPOLYLINE
5
125
100
AcDbEntity
8
0
100
AcDbPolyline
90
8
70
1
43
0.0
10
149.875
20
-54.125000000000007
10
149.875
20
-41.125
42
0.41421356237309503
10
149.375
20
-40.625
10
136.375
20
-40.625
42
0.41421356237309503
10
135.875
20
-41.125
10
135.875
20
-54.125000000000007
42
0.41421356237309503
10
136.375
20
-54.625
10
149.375
20
-54.625
42
0.41421356237309503
0
LWPOLYLINE
5
126
100
AcDbEntity
8
0
100
AcDbPolyline
90
8
70
1
43
0.0
10
207.02500000000001
20
-54.125000000000007
10
207.02500000000003
20
-41.125
42
0.41421356237309503
10
206.52500000000003
20
-40.625
10
193.52500000000003
20
-40.625
42
0.41421356237309503
10
193.02500000000003
20
-41.125
10
193.02500000000003
20
-54.125000000000007
42
0.41421356237309503
10
193.52500000000003
20
-54.625
10
206.52500000000003
20
-54.625
42
0.41421356237309503
0
LWPOLYLINE
5
127
100
AcDbEntity
8
0
100
AcDbPolyline
90
8
70
1
43
0.0
10
173.97500000000002
20
-41.125
42
-0.41421356237309503
10
174.47500000000002
20
-40.625
10
187.47499999999999
20
-40.624999999999993
42
-0.41421356237309503
10
187.97499999999999
20
-41.125
10
187.97499999999999
20
-54.125000000000007
42
-0.41421356237309503
10
187.47499999999999
20
-54.625
10
174.47500000000002
20
-54.625000000000014
42
-0.41421356237309503
10
173.97500000000002
20
-54.125000000000007
0
LWPOLYLINE
5
128
100
AcDbEntity
8
0
100
AcDbPolyline
90
8
70
1
43
0.0
10
60.174999999999997
20
-54.625
42
-0.41421356237309503
10
59.675000000000004
20
-54.125000000000007
10
59.675000000000004
20
-41.125
42
-0.41421356237309503
10
60.174999999999997
20
-40.625
10
73.174999999999997
20
-40.625
42
-0.41421356237309503
10
73.674999999999997
20
-41.125
10
73.674999999999997
20
-54.125000000000007
42
-0.41421356237309503
10
73.174999999999997
20
-54.625
0
LWPOLYLINE
5
129
100
AcDbEntity
8
0
100
AcDbPolyline
90
8
70
1
43
0.0
10
130.32499999999999
20
-40.624999999999993
42
-0.41421356237309503
10
130.82499999999999
20
-41.125
10
130.82499999999999
20
-54.125000000000007
42
-0.41421356237309503
10
130.32499999999999
20
-54.625
10
117.32500000000002
20
-54.625000000000014
42
-0.41421356237309503
10
116.82500000000002
20
-54.125000000000007
10
116.82500000000002
20
-41.125
42
-0.41421356237309503
10
117.32500000000002
20
-40.625
0
LWPOLYLINE
5
130
100
AcDbEntity
8
0
100
AcDbPolyline
90
8
70
1
43
0.0
10
92.725000000000009
20
-54.125000000000007
42
-0.41421356237309503
10
92.224999999999994
20
-54.625
10
79.224999999999994
20
-54.625
42
-0.41421356237309503
10
78.724999999999994
20
-54.125000000000007
10
78.724999999999994
20
-41.125
42
-0.41421356237309503
10
79.224999999999994
20
-40.625
10
92.224999999999994
20
-40.624999999999993
42
-0.41421356237309503
10
92.724999999999994
20
-41.125
0
LWPOLYLINE
5
131
100
AcDbEntity
8
0
100
AcDbPolyline
90
8
70
1
43
0.0
10
35.575000000000003
20
-73.174999999999997
10
35.575000000000003
20
-60.174999999999997
42
0.41421356237309503
10
35.075000000000003
20
-59.675000000000004
10
22.074999999999999
20
-59.675000000000004
42
0.41421356237309503
10
21.575000000000003
20
-60.174999999999997
10
21.575000000000003
20
-73.174999999999997
42
0.41421356237309503
10
22.074999999999999
20
-73.674999999999997
10
35.075000000000003
20
-73.674999999999997
42
0.41421356237309503
0
LWPOLYLINE
5
132
100
AcDbEntity
8
0
100
AcDbPolyline
90
8
70
1
43
0.0
10
254.15000000000003
20
-54.625
10
241.15000000000003
20
-54.625000000000014
42
-0.41421356237309503
10
240.65000000000001
20
-54.125000000000007
10
240.65000000000001
20
-41.125
42
-0.41421356237309503
10
241.15000000000003
20
-40.625
10
254.15000000000003
20
-40.624999999999993
42
-0.41421356237309503
10
254.65000000000003
20
-41.125
10
254.65000000000003
20
-54.125000000000007
42
-0.41421356237309503
0
LWPOLYLINE
5
133
100
AcDbEntity
8
0
100
AcDbPolyline
90
8
70
1
43
0.0
10
16.524999999999999
20
-73.174999999999997
42
-0.41421356237309503
10
16.024999999999999
20
-73.674999999999997
10
3.0249999999999999
20
-73.674999999999997
42
-0.41421356237309503
10
2.5249999999999999
20
-73.174999999999997
10
2.5250000000000017
20
-60.174999999999997
42
-0.41421356237309503
10
3.0249999999999999
20
-59.675000000000004
10
16.024999999999999
20
-59.675000000000004
42
-0.41421356237309503
10
16.524999999999999
20
-60.174999999999997
0
LWPOLYLINE
5
134
100
AcDbEntity
8
0
100
AcDbPolyline
90
8
70
1
43
0.0
10
226.07500000000002
20
-54.125000000000007
10
226.07500000000002
20
-41.125
42
0.41421356237309503
10
225.57500000000002
20
-40.625
10
212.57499999999999
20
-40.625
42
0.41421356237309503
10
212.07499999999999
20
-41.125
10
212.07499999999999
20
-54.125000000000007
42
0.41421356237309503
10
212.57499999999999
20
-54.625
10
225.57500000000002
20
-54.625
42
0.41421356237309503
0
LWPOLYLINE
5
135
100
AcDbEntity
8
0
100
AcDbPolyline
90
8
70
1
43
0.0
10
292.75
20
-54.125000000000007
42
-0.41421356237309503
10
292.25
20
-54.625
10
279.25
20
-54.625000000000014
42
-0.41421356237309503
10
278.75
20
-54.125000000000007
10
278.75
20
-41.125
42
-0.41421356237309503
10
279.25
20
-40.625
10
292.25
20
-40.624999999999993
42
-0.41421356237309503
10
292.75
20
-41.125
0
LWPOLYLINE
5
136
100
AcDbEntity
8
0
100
AcDbPolyline
90
8
70
1
43
0.0
10
259.69999999999999
20
-41.125
42
-0.41421356237309503
10
260.19999999999999
20
-40.625
10
273.19999999999999
20
-40.624999999999993
42
-0.41421356237309503
10
273.69999999999999
20
-41.125
10
273.69999999999999
20
-54.125000000000007
42
-0.41421356237309503
10
273.19999999999999
20
-54.625
10
260.19999999999999
20
-54.625000000000014
42
-0.41421356237309503
10
259.69999999999999
20
-54.125000000000007
0
ARC
5
137
100
AcDbEntity
8
0
100
AcDbCircle
10
16.024999999999999
20
-73.174999999999997
30
0
40
0.49999999999999822
210
0
220
0
230
1
100
AcDbArc
50
-90
51
0
0
LINE
5
138
100
AcDbEntity
8
0
100
AcDbLine
10
35.575000000000003
20
-60.174999999999997
30
0
11
35.575000000000003
21
-73.174999999999997
31
0
0
ARC
5
139
100
AcDbEntity
8
0
100
AcDbCircle
10
22.074999999999999
20
-60.174999999999997
30
0
40
0.49999999999999822
210
0
220
-0
230
1
100
AcDbArc
50
90
51
180
0
ARC
5
140
100
AcDbEntity
8
0
100
AcDbCircle
10
3.0249999999999999
20
-60.174999999999997
30
0
40
0.49999999999999822
210
0
220
-0
230
1
100
AcDbArc
50
90
51
180
0
LWPOLYLINE
5
141
100
AcDbEntity
8
0
100
AcDbPolyline
90
8
70
1
43
0.0
10
86.312000000000012
20
-60.674999999999997
10
80.311999999999998
20
-60.674999999999997
42
0.41421356237309503
10
79.811999999999998
20
-61.174999999999997
10
79.811999999999998
20
-75.174999999999997
42
0.41421356237309503
10
80.311999999999998
20
-75.674999999999997
10
86.312000000000012
20
-75.674999999999997
42
0.41421356237309503
10
86.812000000000026
20
-75.174999999999997
10
86.812000000000026
20
-61.174999999999997
42
0.41421356237309503
0
LWPOLYLINE
5
142
100
AcDbEntity
8
0
100
AcDbPolyline
90
8
70
1
43
0.0
10
79.224999999999994
20
-73.674999999999997
42
-0.41421356237309503
10
78.724999999999994
20
-73.174999999999997
10
78.724999999999994
20
-60.174999999999997
42
-0.41421356237309503
10
79.224999999999994
20
-59.675000000000004
10
92.224999999999994
20
-59.674999999999997
42
-0.41421356237309503
10
92.725000000000009
20
-60.174999999999997
10
92.725000000000009
20
-73.174999999999997
42
-0.41421356237309503
10
92.224999999999994
20
-73.674999999999997
0
ARC
5
143
100
AcDbEntity
8
0
100
AcDbCircle
10
3.0249999999999999
20
-73.174999999999997
30
0
40
0.49999999999999989
210
0
220
0
230
1
100
AcDbArc
50
180
51
270
0
LWPOLYLINE
5
144
100
AcDbEntity
8
0
100
AcDbPolyline
90
8
70
1
43
0.0
10
60.174999999999997
20
-73.674999999999997
42
-0.41421356237309503
10
59.675000000000004
20
-73.174999999999997
10
59.675000000000004
20
-60.174999999999997
42
-0.41421356237309503
10
60.174999999999997
20
-59.675000000000004
10
73.174999999999997
20
-59.675000000000004
42
-0.41421356237309503
10
73.674999999999997
20
-60.174999999999997
10
73.674999999999997
20
-73.174999999999997
42
-0.41421356237309503
10
73.174999999999997
20
-73.674999999999997
0
LWPOLYLINE
5
145
100
AcDbEntity
8
0
100
AcDbPolyline
90
8
70
1
43
0.0
10
54.125000000000007
20
-59.675000000000004
10
41.125
20
-59.675000000000004
42
0.41421356237309503
10
40.625
20
-60.174999999999997
10
40.625
20
-73.174999999999997
42
0.41421356237309503
10
41.125
20
-73.674999999999997
10
54.125000000000007
20
-73.674999999999997
42
0.41421356237309503
10
54.625
20
-73.174999999999997
10
54.625
20
-60.174999999999997
42
0.41421356237309503
0
LWPOLYLINE
5
146
100
AcDbEntity
8
0
100
AcDbPolyline
90
8
70
1
43
0.0
10
102.25000000000001
20
-73.174999999999997
42
-0.41421356237309503
10
101.75
20
-73.674999999999997
10
88.75
20
-73.675000000000011
42
-0.41421356237309503
10
88.250000000000014
20
-73.174999999999997
10
88.25
20
-60.174999999999997
42
-0.41421356237309503
10
88.75
20
-59.675000000000004
10
101.75
20
-59.674999999999997
42
-0.41421356237309503
10
102.25000000000001
20
-60.174999999999997
0
LINE
5
147
100
AcDbEntity
8
0
100
AcDbLine
10
3.0249999999999999
20
-59.675000000000004
30
0
11
16.024999999999999
21
-59.675000000000004
31
0
0
LINE
5
148
100
AcDbEntity
8
0
100
AcDbLine
10
2.5249999999999999
20
-60.174999999999997
30
0
11
2.5249999999999999
21
-73.174999999999997
31
0
0
LINE
5
149
100
AcDbEntity
8
0
100
AcDbLine
10
21.575000000000003
20
-60.174999999999997
30
0
11
21.575000000000003
21
-73.174999999999997
31
0
0
ARC
5
150
100
AcDbEntity
8
0
100
AcDbCircle
10
16.024999999999999
20
-60.174999999999997
30
0
40
0.50000000000000044
210
0
220
0
230
1
100
AcDbArc
50
0
51
90
0
LINE
5
151
100
AcDbEntity
8
0
100
AcDbLine
10
22.074999999999999
20
-73.674999999999997
30
0
11
35.075000000000003
21
-73.674999999999997
31
0
0
LINE
5
152
100
AcDbEntity
8
0
100
AcDbLine
10
22.074999999999999
20
-59.675000000000004
30
0
11
35.075000000000003
21
-59.675000000000004
31
0
0
LINE
5
153
100
AcDbEntity
8
0
100
AcDbLine
10
16.524999999999999
20
-60.174999999999997
30
0
11
16.525000000000002
21
-73.174999999999997
31
0
0
LINE
5
154
100
AcDbEntity
8
0
100
AcDbLine
10
3.0249999999999999
20
-73.674999999999997
30
0
11
16.024999999999999
21
-73.674999999999997
31
0
0
ARC
5
155
100
AcDbEntity
8
0
100
AcDbCircle
10
35.075000000000003
20
-73.174999999999997
30
0
40
0.49999999999999822
210
0
220
0
230
1
100
AcDbArc
50
-90
51
0
0
LINE
5
156
100
AcDbEntity
8
0
100
AcDbLine
10
54.625
20
-60.174999999999997
30
0
11
54.625
21
-73.174999999999997
31
0
0
LWPOLYLINE
5
157
100
AcDbEntity
8
0
100
AcDbPolyline
90
8
70
1
43
0.0
10
111.77500000000002
20
-73.174999999999997
10
111.77500000000002
20
-60.174999999999997
42
0.41421356237309503
10
111.27500000000001
20
-59.675000000000004
10
98.275000000000006
20
-59.675000000000004
42
0.41421356237309503
10
97.775000000000006
20
-60.174999999999997
10
97.775000000000006
20
-73.174999999999997
42
0.41421356237309503
10
98.275000000000006
20
-73.674999999999997
10
111.27500000000001
20
-73.674999999999997
42
0.41421356237309503
0
LINE
5
158
100
AcDbEntity
8
0
100
AcDbLine
10
59.675000000000004
20
-60.174999999999997
30
0
11
59.675000000000004
21
-73.174999999999997
31
0
0
LWPOLYLINE
5
159
100
AcDbEntity
8
0
100
AcDbPolyline
90
8
70
1
43
0.0
10
130.82499999999999
20
-73.174999999999997
10
130.82499999999999
20
-60.174999999999997
42
0.41421356237309503
10
130.32499999999999
20
-59.675000000000004
10
117.32500000000002
20
-59.675000000000004
42
0.41421356237309503
10
116.82500000000002
20
-60.174999999999997
10
116.82500000000002
20
-73.174999999999997
42
0.41421356237309503
10
117.32500000000002
20
-73.674999999999997
10
130.32499999999999
20
-73.674999999999997
42
0.41421356237309503
0
LWPOLYLINE
5
160
100
AcDbEntity
8
0
100
AcDbPolyline
90
8
70
1
43
0.0
10
104.18799999999999
20
-75.675000000000011
42
-0.41421356237309503
10
103.68799999999999
20
-75.174999999999997
10
103.688
20
-61.174999999999997
42
-0.41421356237309503
10
104.18799999999999
20
-60.674999999999997
10
110.18799999999999
20
-60.67499999999999
42
-0.41421356237309503
10
110.68799999999999
20
-61.174999999999997
10
110.68799999999999
20
-75.174999999999997
42
-0.41421356237309503
10
110.18799999999999
20
-75.674999999999997
0
LWPOLYLINE
5
161
100
AcDbEntity
8
0
100
AcDbPolyline
90
8
70
1
43
0.0
10
122.73800000000001
20
-61.174999999999997
42
-0.41421356237309503
10
123.238
20
-60.674999999999997
10
129.238
20
-60.67499999999999
42
-0.41421356237309503
10
129.738
20
-61.174999999999997
10
129.738
20
-75.174999999999997
42
-0.41421356237309503
10
129.238
20
-75.674999999999997
10
123.238
20
-75.675000000000011
42
-0.41421356237309503
10
122.738
20
-75.174999999999997
0
LINE
5
162
100
AcDbEntity
8
0
100
AcDbLine
10
41.125
20
-73.674999999999997
30
0
11
54.125000000000007
21
-73.674999999999997
31
0
0
LWPOLYLINE
5
163
100
AcDbEntity
8
0
100
AcDbPolyline
90
8
70
1
43
0.0
10
124.41200000000002
20
-60.674999999999997
10
118.41200000000001
20
-60.674999999999997
42
0.41421356237309503
10
117.91200000000001
20
-61.174999999999997
10
117.91200000000001
20
-75.174999999999997
42
0.41421356237309503
10
118.41200000000001
20
-75.674999999999997
10
124.41200000000002
20
-75.674999999999997
42
0.41421356237309503
10
124.91200000000001
20
-75.174999999999997
10
124.91200000000003
20
-61.174999999999997
42
0.41421356237309503
0
LWPOLYLINE
5
164
100
AcDbEntity
8
0
100
AcDbPolyline
90
8
70
1
43
0.0
10
105.86200000000002
20
-75.174999999999997
10
105.86200000000002
20
-61.174999999999997
42
0.41421356237309503
10
105.36200000000001
20
-60.674999999999997
10
99.362000000000009
20
-60.674999999999997
42
0.41421356237309503
10
98.862000000000009
20
-61.174999999999997
10
98.862000000000009
20
-75.174999999999997
42
0.41421356237309503
10
99.362000000000009
20
-75.674999999999997
10
105.36200000000001
20
-75.674999999999997
42
0.41421356237309503
0
LWPOLYLINE
5
165
100
AcDbEntity
8
0
100
AcDbPolyline
90
8
70
1
43
0.0
10
121.29999999999998
20
-73.174999999999997
42
-0.41421356237309503
10
120.8
20
-73.674999999999997
10
107.80000000000001
20
-73.675000000000011
42
-0.41421356237309503
10
107.30000000000001
20
-73.174999999999997
10
107.30000000000001
20
-60.174999999999997
42
-0.41421356237309503
10
107.80000000000001
20
-59.675000000000004
10
120.8
20
-59.674999999999997
42
-0.41421356237309503
10
121.30000000000001
20
-60.174999999999997
0
ARC
5
166
100
AcDbEntity
8
0
100
AcDbCircle
10
60.174999999999997
20
-60.174999999999997
30
0
40
0.49999999999999822
210
0
220
-0
230
1
100
AcDbArc
50
90
51
180
0
ARC
5
167
100
AcDbEntity
8
0
100
AcDbCircle
10
22.074999999999999
20
-73.174999999999997
30
0
40
0.49999999999999822
210
0
220
0
230
1
100
AcDbArc
50
180
51
270
0
ARC
5
168
100
AcDbEntity
8
0
100
AcDbCircle
10
54.125000000000007
20
-60.174999999999997
30
0
40
0.49999999999999822
210
0
220
0
230
1
100
AcDbArc
50
0
51
90
0
LWPOLYLINE
5
169
100
AcDbEntity
8
0
100
AcDbPolyline
90
8
70
1
43
0.0
10
126.85000000000001
20
-73.675000000000011
42
-0.41421356237309503
10
126.34999999999999
20
-73.174999999999997
10
126.35000000000002
20
-60.174999999999997
42
-0.41421356237309503
10
126.85000000000001
20
-59.675000000000004
10
139.84999999999999
20
-59.674999999999997
42
-0.41421356237309503
10
140.34999999999999
20
-60.174999999999997
10
140.34999999999999
20
-73.174999999999997
42
-0.41421356237309503
10
139.84999999999999
20
-73.674999999999997
0
ARC
5
170
100
AcDbEntity
8
0
100
AcDbCircle
10
73.174999999999997
20
-73.174999999999997
30
0
40
0.49999999999999822
210
0
220
0
230
1
100
AcDbArc
50
-90
51
0
0
LINE
5
171
100
AcDbEntity
8
0
100
AcDbLine
10
40.625
20
-60.174999999999997
30
0
11
40.625
21
-73.174999999999997
31
0
0
LINE
5
172
100
AcDbEntity
8
0
100
AcDbLine
10
79.224999999999994
20
-73.674999999999997
30
0
11
92.224999999999994
21
-73.674999999999997
31
0
0
ARC
5
173
100
AcDbEntity
8
0
100
AcDbCircle
10
92.224999999999994
20
-73.174999999999997
30
0
40
0.49999999999999822
210
0
220
0
230
1
100
AcDbArc
50
-90
51
0
0
ARC
5
174
100
AcDbEntity
8
0
100
AcDbCircle
10
54.125000000000007
20
-73.174999999999997
30
0
40
0.49999999999999822
210
0
220
0
230
1
100
AcDbArc
50
-90
51
0
0
ARC
5
175
100
AcDbEntity
8
0
100
AcDbCircle
10
79.224999999999994
20
-60.174999999999997
30
0
40
0.49999999999999822
210
0
220
-0
230
1
100
AcDbArc
50
90
51
180
0
LINE
5
176
100
AcDbEntity
8
0
100
AcDbLine
10
60.174999999999997
20
-73.674999999999997
30
0
11
73.174999999999997
21
-73.674999999999997
31
0
0
LINE
5
177
100
AcDbEntity
8
0
100
AcDbLine
10
78.724999999999994
20
-60.174999999999997
30
0
11
78.724999999999994
21
-73.174999999999997
31
0
0
ARC
5
178
100
AcDbEntity
8
0
100
AcDbCircle
10
41.125
20
-73.174999999999997
30
0
40
0.49999999999999822
210
0
220
0
230
1
100
AcDbArc
50
180
51
270
0
ARC
5
179
100
AcDbEntity
8
0
100
AcDbCircle
10
41.125
20
-60.174999999999997
30
0
40
0.49999999999999822
210
0
220
-0
230
1
100
AcDbArc
50
90
51
180
0
LINE
5
180
100
AcDbEntity
8
0
100
AcDbLine
10
73.674999999999997
20
-60.174999999999997
30
0
11
73.674999999999997
21
-73.174999999999997
31
0
0
ARC
5
181
100
AcDbEntity
8
0
100
AcDbCircle
10
60.174999999999997
20
-73.174999999999997
30
0
40
0.49999999999999822
210
0
220
0
230
1
100
AcDbArc
50
180
51
270
0
ARC
5
182
100
AcDbEntity
8
0
100
AcDbCircle
10
35.075000000000003
20
-60.174999999999997
30
0
40
0.49999999999999822
210
0
220
0
230
1
100
AcDbArc
50
0
51
90
0
LINE
5
183
100
AcDbEntity
8
0
100
AcDbLine
10
92.725000000000009
20
-60.174999999999997
30
0
11
92.725000000000009
21
-73.174999999999997
31
0
0
LINE
5
184
100
AcDbEntity
8
0
100
AcDbLine
10
79.224999999999994
20
-59.675000000000004
30
0
11
92.224999999999994
21
-59.675000000000004
31
0
0
LINE
5
185
100
AcDbEntity
8
0
100
AcDbLine
10
41.125
20
-59.675000000000004
30
0
11
54.125000000000007
21
-59.675000000000004
31
0
0
ARC
5
186
100
AcDbEntity
8
0
100
AcDbCircle
10
79.224999999999994
20
-73.174999999999997
30
0
40
0.49999999999999822
210
0
220
0
230
1
100
AcDbArc
50
180
51
270
0
ARC
5
187
100
AcDbEntity
8
0
100
AcDbCircle
10
92.224999999999994
20
-60.174999999999997
30
0
40
0.50000000000000711
210
0
220
0
230
1
100
AcDbArc
50
0
51
90
0
ARC
5
188
100
AcDbEntity
8
0
100
AcDbCircle
10
73.174999999999997
20
-60.174999999999997
30
0
40
0.49999999999999822
210
0
220
0
230
1
100
AcDbArc
50
0
51
90
0
LINE
5
189
100
AcDbEntity
8
0
100
AcDbLine
10
60.174999999999997
20
-59.675000000000004
30
0
11
73.174999999999997
21
-59.675000000000004
31
0
0
LWPOLYLINE
5
190
100
AcDbEntity
8
0
100
AcDbPolyline
90
8
70
1
43
0.0
10
187.47499999999999
20
-59.674999999999997
42
-0.41421356237309503
10
187.97499999999999
20
-60.174999999999997
10
187.97499999999999
20
-73.174999999999997
42
-0.41421356237309503
10
187.47499999999999
20
-73.674999999999997
10
174.47500000000002
20
-73.675000000000011
42
-0.41421356237309503
10
173.97500000000002
20
-73.174999999999997
10
173.97500000000002
20
-60.174999999999997
42
-0.41421356237309503
10
174.47500000000002
20
-59.675000000000004
0
LWPOLYLINE
5
191
100
AcDbEntity
8
0
100
AcDbPolyline
90
8
70
1
43
0.0
10
168.42500000000001
20
-73.674999999999997
10
155.42500000000001
20
-73.675000000000011
42
-0.41421356237309503
10
154.92500000000001
20
-73.174999999999997
10
154.92500000000004
20
-60.174999999999997
42
-0.41421356237309503
10
155.42500000000001
20
-59.675000000000004
10
168.42500000000001
20
-59.674999999999997
42
-0.41421356237309503
10
168.92500000000001
20
-60.174999999999997
10
168.92500000000001
20
-73.174999999999997
42
-0.41421356237309503
0
LWPOLYLINE
5
192
100
AcDbEntity
8
0
100
AcDbPolyline
90
8
70
1
43
0.0
10
206.52500000000003
20
-59.675000000000004
10
193.52500000000003
20
-59.675000000000004
42
0.41421356237309503
10
193.02500000000003
20
-60.174999999999997
10
193.02500000000003
20
-73.174999999999997
42
0.41421356237309503
10
193.52500000000003
20
-73.674999999999997
10
206.52500000000003
20
-73.674999999999997
42
0.41421356237309503
10
207.02500000000001
20
-73.174999999999997
10
207.02500000000003
20
-60.174999999999997
42
0.41421356237309503
0
LWPOLYLINE
5
193
100
AcDbEntity
8
0
100
AcDbPolyline
90
8
70
1
43
0.0
10
149.875
20
-73.174999999999997
10
149.875
20
-60.174999999999997
42
0.41421356237309503
10
149.375
20
-59.675000000000004
10
136.375
20
-59.675000000000004
42
0.41421356237309503
10
135.875
20
-60.174999999999997
10
135.875
20
-73.174999999999997
42
0.41421356237309503
10
136.375
20
-73.674999999999997
10
149.375
20
-73.674999999999997
42
0.41421356237309503
0
LINE
5
194
100
AcDbEntity
8
0
100
AcDbLine
10
155.42500000000001
20
-59.675000000000004
30
0
11
168.42500000000001
21
-59.675000000000004
31
0
0
LWPOLYLINE
5
195
100
AcDbEntity
8
0
100
AcDbPolyline
90
8
70
1
43
0.0
10
141.78799999999998
20
-75.174999999999997
10
141.78799999999998
20
-61.174999999999997
42
-0.41421356237309503
10
142.28800000000001
20
-60.674999999999997
10
148.28799999999998
20
-60.67499999999999
42
-0.41421356237309503
10
148.78799999999998
20
-61.174999999999997
10
148.78799999999998
20
-75.174999999999997
42
-0.41421356237309503
10
148.28799999999998
20
-75.674999999999997
10
142.28800000000001
20
-75.675000000000011
42
-0.41421356237309503
0
ARC
5
196
100
AcDbEntity
8
0
100
AcDbCircle
10
187.47499999999999
20
-60.174999999999997
30
0
40
0.50000000000000711
210
0
220
0
230
1
100
AcDbArc
50
0
51
90
0
ARC
5
197
100
AcDbEntity
8
0
100
AcDbCircle
10
149.375
20
-60.174999999999997
30
0
40
0.50000000000000711
210
0
220
0
230
1
100
AcDbArc
50
0
51
90
0
LINE
5
198
100
AcDbEntity
8
0
100
AcDbLine
10
155.42500000000001
20
-73.674999999999997
30
0
11
168.42500000000001
21
-73.674999999999997
31
0
0
ARC
5
199
100
AcDbEntity
8
0
100
AcDbCircle
10
136.375
20
-60.174999999999997
30
0
40
0.49999999999999822
210
0
220
-0
230
1
100
AcDbArc
50
90
51
180
0
ARC
5
200
100
AcDbEntity
8
0
100
AcDbCircle
10
149.375
20
-73.174999999999997
30
0
40
0.49999999999999822
210
0
220
0
230
1
100
AcDbArc
50
-90
51
0
0
LINE
5
201
100
AcDbEntity
8
0
100
AcDbLine
10
174.47500000000002
20
-59.675000000000004
30
0
11
187.47499999999999
21
-59.675000000000004
31
0
0
LWPOLYLINE
5
202
100
AcDbEntity
8
0
100
AcDbPolyline
90
8
70
1
43
0.0
10
273.69999999999999
20
-73.174999999999997
10
273.69999999999999
20
-60.174999999999997
42
0.41421356237309503
10
273.19999999999999
20
-59.675000000000004
10
260.19999999999999
20
-59.675000000000004
42
0.41421356237309503
10
259.69999999999999
20
-60.174999999999997
10
259.69999999999999
20
-73.174999999999997
42
0.41421356237309503
10
260.19999999999999
20
-73.674999999999997
10
273.19999999999999
20
-73.674999999999997
42
0.41421356237309503
0
LWPOLYLINE
5
203
100
AcDbEntity
8
0
100
AcDbPolyline
90
8
70
1
43
0.0
10
292.25
20
-59.674999999999997
42
-0.41421356237309503
10
292.75
20
-60.174999999999997
10
292.75
20
-73.174999999999997
42
-0.41421356237309503
10
292.25
20
-73.674999999999997
10
279.25
20
-73.675000000000011
42
-0.41421356237309503
10
278.75
20
-73.174999999999997
10
278.75
20
-60.174999999999997
42
-0.41421356237309503
10
279.25
20
-59.675000000000004
0
ARC
5
204
100
AcDbEntity
8
0
100
AcDbCircle
10
168.42500000000001
20
-60.174999999999997
30
0
40
0.50000000000000711
210
0
220
0
230
1
100
AcDbArc
50
0
51
90
0
LINE
5
205
100
AcDbEntity
8
0
100
AcDbLine
10
136.375
20
-73.674999999999997
30
0
11
149.375
21
-73.674999999999997
31
0
0
ARC
5
206
100
AcDbEntity
8
0
100
AcDbCircle
10
155.42500000000001
20
-73.174999999999997
30
0
40
0.50000000000000711
210
0
220
0
230
1
100
AcDbArc
50
180
51
270
0
LWPOLYLINE
5
207
100
AcDbEntity
8
0
100
AcDbPolyline
90
8
70
1
43
0.0
10
212.07499999999999
20
-73.174999999999997
10
212.07499999999999
20
-60.174999999999997
42
-0.41421356237309503
10
212.57499999999999
20
-59.675000000000004
10
225.57500000000002
20
-59.674999999999997
42
-0.41421356237309503
10
226.07500000000002
20
-60.174999999999997
10
226.07500000000002
20
-73.174999999999997
42
-0.41421356237309503
10
225.57500000000002
20
-73.674999999999997
10
212.57499999999999
20
-73.675000000000011
42
-0.41421356237309503
0
LINE
5
208
100
AcDbEntity
8
0
100
AcDbLine
10
174.47500000000002
20
-73.674999999999997
30
0
11
187.47499999999999
21
-73.674999999999997
31
0
0
LWPOLYLINE
5
209
100
AcDbEntity
8
0
100
AcDbPolyline
90
8
70
1
43
0.0
10
16.524999999999999
20
-92.224999999999994
10
16.525000000000002
20
-79.224999999999994
42
0.41421356237309503
10
16.024999999999999
20
-78.724999999999994
10
3.0249999999999999
20
-78.724999999999994
42
0.41421356237309503
10
2.5249999999999999
20
-79.224999999999994
10
2.5249999999999999
20
-92.224999999999994
42
0.41421356237309503
10
3.0249999999999999
20
-92.725000000000009
10
16.024999999999999
20
-92.725000000000009
42
0.41421356237309503
0
ARC
5
210
100
AcDbEntity
8
0
100
AcDbCircle
10
187.47499999999999
20
-73.174999999999997
30
0
40
0.49999999999999822
210
0
220
0
230
1
100
AcDbArc
50
-90
51
0
0
LINE
5
211
100
AcDbEntity
8
0
100
AcDbLine
10
187.97499999999999
20
-60.174999999999997
30
0
11
187.97499999999999
21
-73.174999999999997
31
0
0
ARC
5
212
100
AcDbEntity
8
0
100
AcDbCircle
10
174.47500000000002
20
-60.174999999999997
30
0
40
0.49999999999999822
210
0
220
-0
230
1
100
AcDbArc
50
90
51
180
0
ARC
5
213
100
AcDbEntity
8
0
100
AcDbCircle
10
193.52500000000003
20
-60.174999999999997
30
0
40
0.49999999999999822
210
0
220
-0
230
1
100
AcDbArc
50
90
51
180
0
ARC
5
214
100
AcDbEntity
8
0
100
AcDbCircle
10
212.57499999999999
20
-60.174999999999997
30
0
40
0.49999999999999822
210
0
220
-0
230
1
100
AcDbArc
50
90
51
180
0
ARC
5
215
100
AcDbEntity
8
0
100
AcDbCircle
10
155.42500000000001
20
-60.174999999999997
30
0
40
0.49999999999999822
210
0
220
-0
230
1
100
AcDbArc
50
90
51
180
0
LINE
5
216
100
AcDbEntity
8
0
100
AcDbLine
10
154.92500000000001
20
-60.174999999999997
30
0
11
154.92500000000001
21
-73.174999999999997
31
0
0
LINE
5
217
100
AcDbEntity
8
0
100
AcDbLine
10
149.875
20
-60.174999999999997
30
0
11
149.875
21
-73.174999999999997
31
0
0
ARC
5
218
100
AcDbEntity
8
0
100
AcDbCircle
10
206.52500000000003
20
-73.174999999999997
30
0
40
0.49999999999999822
210
0
220
0
230
1
100
AcDbArc
50
-90
51
0
0
LINE
5
219
100
AcDbEntity
8
0
100
AcDbLine
10
212.57499999999999
20
-73.674999999999997
30
0
11
225.57500000000002
21
-73.674999999999997
31
0
0
LINE
5
220
100
AcDbEntity
8
0
100
AcDbLine
10
168.92500000000001
20
-60.174999999999997
30
0
11
168.92500000000001
21
-73.174999999999997
31
0
0
LINE
5
221
100
AcDbEntity
8
0
100
AcDbLine
10
226.07500000000002
20
-60.174999999999997
30
0
11
226.07500000000002
21
-73.174999999999997
31
0
0
LWPOLYLINE
5
222
100
AcDbEntity
8
0
100
AcDbPolyline
90
8
70
1
43
0.0
10
254.15000000000003
20
-73.674999999999997
10
241.15000000000003
20
-73.675000000000011
42
-0.41421356237309503
10
240.65000000000001
20
-73.174999999999997
10
240.65000000000001
20
-60.174999999999997
42
-0.41421356237309503
10
241.15000000000003
20
-59.675000000000004
10
254.15000000000003
20
-59.674999999999997
42
-0.41421356237309503
10
254.65000000000003
20
-60.174999999999997
10
254.65000000000003
20
-73.174999999999997
42
-0.41421356237309503
0
LINE
5
223
100
AcDbEntity
8
0
100
AcDbLine
10
136.375
20
-59.675000000000004
30
0
11
149.375
21
-59.675000000000004
31
0
0
LINE
5
224
100
AcDbEntity
8
0
100
AcDbLine
10
173.97500000000002
20
-60.174999999999997
30
0
11
173.97500000000002
21
-73.174999999999997
31
0
0
ARC
5
225
100
AcDbEntity
8
0
100
AcDbCircle
10
136.375
20
-73.174999999999997
30
0
40
0.50000000000000711
210
0
220
0
230
1
100
AcDbArc
50
180
51
270
0
ARC
5
226
100
AcDbEntity
8
0
100
AcDbCircle
10
174.47500000000002
20
-73.174999999999997
30
0
40
0.50000000000000711
210
0
220
0
230
1
100
AcDbArc
50
180
51
270
0
LINE
5
227
100
AcDbEntity
8
0
100
AcDbLine
10
135.875
20
-60.174999999999997
30
0
11
135.875
21
-73.174999999999997
31
0
0
ARC
5
228
100
AcDbEntity
8
0
100
AcDbCircle
10
168.42500000000001
20
-73.174999999999997
30
0
40
0.49999999999999822
210
0
220
0
230
1
100
AcDbArc
50
-90
51
0
0
LINE
5
229
100
AcDbEntity
8
0
100
AcDbLine
10
207.02500000000001
20
-60.174999999999997
30
0
11
207.02500000000001
21
-73.174999999999997
31
0
0
LWPOLYLINE
5
230
100
AcDbEntity
8
0
100
AcDbPolyline
90
8
70
1
43
0.0
10
73.174999999999997
20
-78.724999999999994
42
-0.41421356237309503
10
73.674999999999997
20
-79.224999999999994
10
73.675000000000011
20
-92.224999999999994
42
-0.41421356237309503
10
73.174999999999997
20
-92.725000000000009
10
60.174999999999997
20
-92.725000000000009
42
-0.41421356237309503
10
59.675000000000004
20
-92.224999999999994
10
59.675000000000004
20
-79.224999999999994
42
-0.41421356237309503
10
60.174999999999997
20
-78.724999999999994
0
LWPOLYLINE
5
231
100
AcDbEntity
8
0
100
AcDbPolyline
90
8
70
1
43
0.0
10
79.811999999999998
20
-80.224999999999994
42
-0.41421356237309503
10
80.311999999999998
20
-79.724999999999994
10
86.312000000000012
20
-79.72499999999998
42
-0.41421356237309503
10
86.812000000000026
20
-80.224999999999994
10
86.812000000000026
20
-94.224999999999994
42
-0.41421356237309503
10
86.312000000000012
20
-94.724999999999994
10
80.311999999999998
20
-94.724999999999994
42
-0.41421356237309503
10
79.811999999999998
20
-94.224999999999994
0
LWPOLYLINE
5
232
100
AcDbEntity
8
0
100
AcDbPolyline
90
8
70
1
43
0.0
10
35.575000000000003
20
-92.224999999999994
10
35.575000000000003
20
-79.224999999999994
42
0.41421356237309503
10
35.075000000000003
20
-78.724999999999994
10
22.074999999999999
20
-78.724999999999994
42
0.41421356237309503
10
21.575000000000003
20
-79.224999999999994
10
21.575000000000003
20
-92.224999999999994
42
0.41421356237309503
10
22.074999999999999
20
-92.724999999999994
10
35.075000000000003
20
-92.725000000000009
42
0.41421356237309503
0
ARC
5
233
100
AcDbEntity
8
0
100
AcDbCircle
10
206.52500000000003
20
-60.174999999999997
30
0
40
0.50000000000000711
210
0
220
0
230
1
100
AcDbArc
50
0
51
90
0
LWPOLYLINE
5
234
100
AcDbEntity
8
0
100
AcDbPolyline
90
8
70
1
43
0.0
10
79.224999999999994
20
-92.725000000000009
42
-0.41421356237309503
10
78.724999999999994
20
-92.224999999999994
10
78.724999999999994
20
-79.224999999999994
42
-0.41421356237309503
10
79.224999999999994
20
-78.724999999999994
10
92.224999999999994
20
-78.724999999999994
42
-0.41421356237309503
10
92.724999999999994
20
-79.224999999999994
10
92.725000000000009
20
-92.224999999999994
42
-0.41421356237309503
10
92.224999999999994
20
-92.724999999999994
0
LWPOLYLINE
5
235
100
AcDbEntity
8
0
100
AcDbPolyline
90
8
70
1
43
0.0
10
40.625
20
-79.224999999999994
42
-0.41421356237309503
10
41.125
20
-78.724999999999994
10
54.125000000000007
20
-78.724999999999994
42
-0.41421356237309503
10
54.625
20
-79.224999999999994
10
54.625000000000014
20
-92.224999999999994
42
-0.41421356237309503
10
54.125000000000007
20
-92.725000000000009
10
41.125
20
-92.725000000000009
42
-0.41421356237309503
10
40.625
20
-92.224999999999994
0
LWPOLYLINE
5
236
100
AcDbEntity
8
0
100
AcDbPolyline
90
8
70
1
43
0.0
10
101.75
20
-92.724999999999994
10
88.75
20
-92.725000000000009
42
-0.41421356237309503
10
88.250000000000014
20
-92.224999999999994
10
88.25
20
-79.224999999999994
42
-0.41421356237309503
10
88.75
20
-78.724999999999994
10
101.75
20
-78.724999999999994
42
-0.41421356237309503
10
102.25000000000001
20
-79.224999999999994
10
102.25000000000001
20
-92.224999999999994
42
-0.41421356237309503
0
ARC
5
237
100
AcDbEntity
8
0
100
AcDbCircle
10
225.57500000000002
20
-73.174999999999997
30
0
40
0.49999999999999822
210
0
220
0
230
1
100
AcDbArc
50
-90
51
0
0
LINE
5
238
100
AcDbEntity
8
0
100
AcDbLine
10
193.52500000000003
20
-73.674999999999997
30
0
11
206.52500000000003
21
-73.674999999999997
31
0
0
ARC
5
239
100
AcDbEntity
8
0
100
AcDbCircle
10
193.52500000000003
20
-73.174999999999997
30
0
40
0.50000000000000711
210
0
220
0
230
1
100
AcDbArc
50
180
51
270
0
ARC
5
240
100
AcDbEntity
8
0
100
AcDbCircle
10
212.57499999999999
20
-73.174999999999997
30
0
40
0.50000000000000711
210
0
220
0
230
1
100
AcDbArc
50
180
51
270
0
ARC
5
241
100
AcDbEntity
8
0
100
AcDbCircle
10
225.57500000000002
20
-60.174999999999997
30
0
40
0.50000000000000711
210
0
220
0
230
1
100
AcDbArc
50
0
51
90
0
LINE
5
242
100
AcDbEntity
8
0
100
AcDbLine
10
212.57499999999999
20
-59.675000000000004
30
0
11
225.57500000000002
21
-59.675000000000004
31
0
0
LINE
5
243
100
AcDbEntity
8
0
100
AcDbLine
10
212.07499999999999
20
-60.174999999999997
30
0
11
212.07499999999999
21
-73.174999999999997
31
0
0
LINE
5
244
100
AcDbEntity
8
0
100
AcDbLine
10
193.02500000000003
20
-60.174999999999997
30
0
11
193.02500000000003
21
-73.174999999999997
31
0
0
LINE
5
245
100
AcDbEntity
8
0
100
AcDbLine
10
193.52500000000003
20
-59.675000000000004
30
0
11
206.52500000000003
21
-59.675000000000004
31
0
0
LWPOLYLINE
5
246
100
AcDbEntity
8
0
100
AcDbPolyline
90
8
70
1
43
0.0
10
273.69999999999999
20
-92.224999999999994
10
273.69999999999999
20
-79.224999999999994
42
0.41421356237309503
10
273.19999999999999
20
-78.724999999999994
10
260.19999999999999
20
-78.724999999999994
42
0.41421356237309503
10
259.69999999999999
20
-79.224999999999994
10
259.69999999999999
20
-92.224999999999994
42
0.41421356237309503
10
260.19999999999999
20
-92.725000000000009
10
273.19999999999999
20
-92.725000000000009
42
0.41421356237309503
0
LWPOLYLINE
5
247
100
AcDbEntity
8
0
100
AcDbPolyline
90
8
70
1
43
0.0
10
206.52500000000003
20
-92.724999999999994
10
193.52500000000003
20
-92.725000000000009
42
-0.41421356237309503
10
193.02500000000003
20
-92.224999999999994
10
193.02500000000003
20
-79.224999999999994
42
-0.41421356237309503
10
193.52500000000003
20
-78.724999999999994
10
206.52500000000003
20
-78.724999999999994
42
-0.41421356237309503
10
207.02500000000001
20
-79.224999999999994
10
207.02500000000003
20
-92.224999999999994
42
-0.41421356237309503
0
LWPOLYLINE
5
248
100
AcDbEntity
8
0
100
AcDbPolyline
90
8
70
1
43
0.0
10
187.97499999999999
20
-92.224999999999994
42
-0.41421356237309503
10
187.47499999999999
20
-92.725000000000009
10
174.47500000000002
20
-92.725000000000009
42
-0.41421356237309503
10
173.97500000000002
20
-92.224999999999994
10
173.97500000000002
20
-79.224999999999994
42
-0.41421356237309503
10
174.47500000000002
20
-78.724999999999994
10
187.47499999999999
20
-78.724999999999994
42
-0.41421356237309503
10
187.97499999999999
20
-79.224999999999994
0
LWPOLYLINE
5
249
100
AcDbEntity
8
0
100
AcDbPolyline
90
8
70
1
43
0.0
10
141.78799999999998
20
-80.224999999999994
42
-0.41421356237309503
10
142.28800000000001
20
-79.724999999999994
10
148.28799999999998
20
-79.72499999999998
42
-0.41421356237309503
10
148.78800000000001
20
-80.224999999999994
10
148.78800000000001
20
-94.224999999999994
42
-0.41421356237309503
10
148.28799999999998
20
-94.724999999999994
10
142.28800000000001
20
-94.724999999999994
42
-0.41421356237309503
10
141.78799999999998
20
-94.224999999999994
0
LWPOLYLINE
5
250
100
AcDbEntity
8
0
100
AcDbPolyline
90
8
70
1
43
0.0
10
225.57500000000002
20
-92.724999999999994
10
212.57499999999999
20
-92.725000000000009
42
-0.41421356237309503
10
212.07499999999999
20
-92.224999999999994
10
212.07499999999999
20
-79.224999999999994
42
-0.41421356237309503
10
212.57499999999999
20
-78.724999999999994
10
225.57500000000002
20
-78.724999999999994
42
-0.41421356237309503
10
226.07500000000002
20
-79.224999999999994
10
226.07500000000002
20
-92.224999999999994
42
-0.41421356237309503
0
LWPOLYLINE
5
251
100
AcDbEntity
8
0
100
AcDbPolyline
90
8
70
1
43
0.0
10
168.92500000000001
20
-92.224999999999994
10
168.92500000000001
20
-79.224999999999994
42
0.41421356237309503
10
168.42500000000001
20
-78.724999999999994
10
155.42500000000001
20
-78.724999999999994
42
0.41421356237309503
10
154.92500000000001
20
-79.224999999999994
10
154.92500000000001
20
-92.224999999999994
42
0.41421356237309503
10
155.42500000000001
20
-92.724999999999994
10
168.42500000000001
20
-92.725000000000009
42
0.41421356237309503
0
LWPOLYLINE
5
252
100
AcDbEntity
8
0
100
AcDbPolyline
90
8
70
1
43
0.0
10
149.875
20
-92.224999999999994
10
149.875
20
-79.224999999999994
42
0.41421356237309503
10
149.375
20
-78.724999999999994
10
136.375
20
-78.724999999999994
42
0.41421356237309503
10
135.875
20
-79.224999999999994
10
135.875
20
-92.224999999999994
42
0.41421356237309503
10
136.375
20
-92.724999999999994
10
149.375
20
-92.725000000000009
42
0.41421356237309503
0
LINE
5
253
100
AcDbEntity
8
0
100
AcDbLine
10
241.15000000000003
20
-78.724999999999994
30
0
11
254.15000000000003
21
-78.724999999999994
31
0
0
LINE
5
254
100
AcDbEntity
8
0
100
AcDbLine
10
241.15000000000003
20
-92.724999999999994
30
0
11
254.15000000000003
21
-92.724999999999994
31
0
0
LINE
5
255
100
AcDbEntity
8
0
100
AcDbLine
10
240.65000000000001
20
-79.224999999999994
30
0
11
240.65000000000001
21
-92.224999999999994
31
0
0
ARC
5
256
100
AcDbEntity
8
0
100
AcDbCircle
10
241.15000000000003
20
-79.224999999999994
30
0
40
0.49999999999999822
210
0
220
-0
230
1
100
AcDbArc
50
90
51
180
0
ARC
5
257
100
AcDbEntity
8
0
100
AcDbCircle
10
254.15000000000003
20
-79.224999999999994
30
0
40
0.50000000000000711
210
0
220
0
230
1
100
AcDbArc
50
0
51
90
0
LWPOLYLINE
5
258
100
AcDbEntity
8
0
100
AcDbPolyline
90
8
70
1
43
0.0
10
278.75
20
-92.224999999999994
10
278.75
20
-79.224999999999994
42
-0.41421356237309503
10
279.25
20
-78.724999999999994
10
292.25
20
-78.724999999999994
42
-0.41421356237309503
10
292.75
20
-79.224999999999994
10
292.75
20
-92.224999999999994
42
-0.41421356237309503
10
292.25
20
-92.724999999999994
10
279.25
20
-92.725000000000009
42
-0.41421356237309503
0
LWPOLYLINE
5
259
100
AcDbEntity
8
0
100
AcDbPolyline
90
17
70
1
43
0.0
10
295.27499999999998
20
-3.0000000000000249
10
295.27499999999998
20
-92.25
42
-0.4142135623730846
10
292.27500000000003
20
-95.25
10
3
20
-95.25
42
-0.41421356237309104
10
0
20
-92.25
10
0
20
-3.0000000000000253
42
-0.41421356237309792
10
2.9999999999999982
20
0
10
31.899999999999999
20
-3.1918911957973251e-15
42
0.41421356237309503
10
32.899999999999999
20
0.999999999999997
10
32.899999999999999
20
2.4999999999999991
42
-0.41421356237309492
10
33.399999999999999
20
2.9999999999999982
10
38.100000000000001
20
2.9999999999999982
10
42.800000000000004
20
2.9999999999999973
42
-0.4142135623730952
10
43.299999999999997
20
2.4999999999999982
10
43.299999999999997
20
0.99999999999999811
42
0.41421356237309681
10
44.299999999999997
20
-4.163336342344337e-15
10
292.27500000000003
20
-1.609823385706477e-14
42
-0.4142135623730917
0
ARC
5
260
100
AcDbEntity
8
0
100
AcDbCircle
10
254.15000000000003
20
-92.224999999999994
30
0
40
0.50000000000000711
210
0
220
0
230
1
100
AcDbArc
50
-90
51
0
0
LINE
5
261
100
AcDbEntity
8
0
100
AcDbLine
10
254.65000000000003
20
-79.224999999999994
30
0
11
254.65000000000003
21
-92.224999999999994
31
0
0
ARC
5
262
100
AcDbEntity
8
0
100
AcDbCircle
10
241.15000000000003
20
-92.224999999999994
30
0
40
0.50000000000000711
210
0
220
0
230
1
100
AcDbArc
50
180
51
270
0
LWPOLYLINE
5
263
100
AcDbEntity
8
0
100
AcDbPolyline
90
8
70
1
43
0.0
10
118.41200000000001
20
-94.724999999999994
42
-0.41421356237309503
10
117.91200000000001
20
-94.224999999999994
10
117.91200000000001
20
-80.224999999999994
42
-0.41421356237309503
10
118.41200000000001
20
-79.724999999999994
10
124.41200000000002
20
-79.72499999999998
42
-0.41421356237309503
10
124.91200000000003
20
-80.224999999999994
10
124.91200000000003
20
-94.224999999999994
42
-0.41421356237309503
10
124.41200000000002
20
-94.724999999999994
0
LWPOLYLINE
5
264
100
AcDbEntity
8
0
100
AcDbPolyline
90
8
70
1
43
0.0
10
129.738
20
-94.224999999999994
42
-0.41421356237309503
10
129.238
20
-94.724999999999994
10
123.238
20
-94.724999999999994
42
-0.41421356237309503
10
122.738
20
-94.224999999999994
10
122.73800000000001
20
-80.224999999999994
42
-0.41421356237309503
10
123.238
20
-79.724999999999994
10
129.238
20
-79.72499999999998
42
-0.41421356237309503
10
129.738
20
-80.224999999999994
0
LWPOLYLINE
5
265
100
AcDbEntity
8
0
100
AcDbPolyline
90
8
70
1
43
0.0
10
126.35000000000002
20
-79.224999999999994
42
-0.41421356237309503
10
126.85000000000001
20
-78.724999999999994
10
139.84999999999999
20
-78.724999999999994
42
-0.41421356237309503
10
140.34999999999999
20
-79.224999999999994
10
140.34999999999999
20
-92.224999999999994
42
-0.41421356237309503
10
139.84999999999999
20
-92.724999999999994
10
126.85000000000001
20
-92.725000000000009
42
-0.41421356237309503
10
126.34999999999999
20
-92.224999999999994
0
LWPOLYLINE
5
266
100
AcDbEntity
8
0
100
AcDbPolyline
90
8
70
1
43
0.0
10
110.68799999999999
20
-94.224999999999994
42
-0.41421356237309503
10
110.18799999999999
20
-94.724999999999994
10
104.18799999999999
20
-94.724999999999994
42
-0.41421356237309503
10
103.68799999999999
20
-94.224999999999994
10
103.688
20
-80.224999999999994
42
-0.41421356237309503
10
104.18799999999999
20
-79.724999999999994
10
110.18799999999999
20
-79.72499999999998
42
-0.41421356237309503
10
110.68799999999999
20
-80.224999999999994
0
LWPOLYLINE
5
267
100
AcDbEntity
8
0
100
AcDbPolyline
90
8
70
1
43
0.0
10
99.362000000000009
20
-94.724999999999994
42
-0.41421356237309503
10
98.862000000000009
20
-94.224999999999994
10
98.862000000000023
20
-80.224999999999994
42
-0.41421356237309503
10
99.362000000000009
20
-79.724999999999994
10
105.36200000000001
20
-79.72499999999998
42
-0.41421356237309503
10
105.86200000000002
20
-80.224999999999994
10
105.86200000000002
20
-94.224999999999994
42
-0.41421356237309503
10
105.36200000000001
20
-94.724999999999994
0
LWPOLYLINE
5
268
100
AcDbEntity
8
0
100
AcDbPolyline
90
8
70
1
43
0.0
10
2.5249999999999999
20
-3.0249999999999999
42
-0.41421356237309503
10
3.0249999999999999
20
-2.5249999999999999
10
16.024999999999999
20
-2.5249999999999995
42
-0.41421356237309503
10
16.525000000000002
20
-3.0249999999999999
10
16.525000000000002
20
-16.024999999999999
42
-0.41421356237309503
10
16.024999999999999
20
-16.525000000000002
10
3.0249999999999999
20
-16.525000000000002
42
-0.41421356237309503
10
2.5249999999999999
20
-16.024999999999999
0
LWPOLYLINE
5
269
100
AcDbEntity
8
0
100
AcDbPolyline
90
8
70
1
43
0.0
10
59.675000000000004
20
-16.024999999999999
10
59.675000000000004
20
-3.0249999999999999
42
-0.41421356237309503
10
60.174999999999997
20
-2.5249999999999999
10
73.174999999999997
20
-2.5250000000000017
42
-0.41421356237309503
10
73.674999999999997
20
-3.0249999999999999
10
73.674999999999997
20
-16.024999999999999
42
-0.41421356237309503
10
73.174999999999997
20
-16.524999999999999
10
60.174999999999997
20
-16.524999999999999
42
-0.41421356237309503
0
LWPOLYLINE
5
270
100
AcDbEntity
8
0
100
AcDbPolyline
90
8
70
1
43
0.0
10
107.80000000000001
20
-92.725000000000009
42
-0.41421356237309503
10
107.30000000000001
20
-92.224999999999994
10
107.30000000000001
20
-79.224999999999994
42
-0.41421356237309503
10
107.80000000000001
20
-78.724999999999994
10
120.8
20
-78.724999999999994
42
-0.41421356237309503
10
121.30000000000001
20
-79.224999999999994
10
121.30000000000001
20
-92.224999999999994
42
-0.41421356237309503
10
120.8
20
-92.724999999999994
0
LWPOLYLINE
5
271
100
AcDbEntity
8
0
100
AcDbPolyline
90
8
70
1
43
0.0
10
116.82500000000002
20
-16.024999999999999
10
116.82500000000002
20
-3.0249999999999999
42
-0.41421356237309503
10
117.32500000000002
20
-2.5249999999999999
10
130.32499999999999
20
-2.5249999999999928
42
-0.41421356237309503
10
130.82499999999999
20
-3.0249999999999999
10
130.82499999999999
20
-16.024999999999999
42
-0.41421356237309503
10
130.32499999999999
20
-16.524999999999999
10
117.32500000000002
20
-16.525000000000006
42
-0.41421356237309503
0
LWPOLYLINE
5
272
100
AcDbEntity
8
0
100
AcDbPolyline
90
8
70
1
43
0.0
10
111.27500000000001
20
-2.5249999999999928
42
-0.41421356237309503
10
111.77500000000002
20
-3.0249999999999999
10
111.77500000000002
20
-16.024999999999999
42
-0.41421356237309503
10
111.27500000000001
20
-16.525000000000002
10
98.275000000000006
20
-16.525000000000006
42
-0.41421356237309503
10
97.77500000000002
20
-16.024999999999999
10
97.775000000000006
20
-3.0249999999999999
42
-0.41421356237309503
10
98.275000000000006
20
-2.5249999999999999
0
LWPOLYLINE
5
273
100
AcDbEntity
8
0
100
AcDbPolyline
90
8
70
1
43
0.0
10
149.375
20
-16.524999999999999
10
136.375
20
-16.525000000000006
42
-0.41421356237309503
10
135.875
20
-16.024999999999999
10
135.875
20
-3.0249999999999999
42
-0.41421356237309503
10
136.375
20
-2.5249999999999999
10
149.375
20
-2.5249999999999928
42
-0.41421356237309503
10
149.875
20
-3.0249999999999999
10
149.875
20
-16.024999999999999
42
-0.41421356237309503
0
LWPOLYLINE
5
274
100
AcDbEntity
8
0
100
AcDbPolyline
90
8
70
1
43
0.0
10
35.075000000000003
20
-2.5250000000000017
42
-0.41421356237309503
10
35.575000000000003
20
-3.0249999999999999
10
35.575000000000003
20
-16.024999999999999
42
-0.41421356237309503
10
35.075000000000003
20
-16.525000000000002
10
22.074999999999999
20
-16.524999999999999
42
-0.41421356237309503
10
21.575000000000003
20
-16.024999999999999
10
21.575000000000003
20
-3.0249999999999999
42
-0.41421356237309503
10
22.074999999999999
20
-2.5249999999999999
0
LWPOLYLINE
5
275
100
AcDbEntity
8
0
100
AcDbPolyline
90
8
70
1
43
0.0
10
78.724999999999994
20
-3.0249999999999999
42
-0.41421356237309503
10
79.224999999999994
20
-2.5249999999999999
10
92.224999999999994
20
-2.5249999999999928
42
-0.41421356237309503
10
92.724999999999994
20
-3.0249999999999999
10
92.725000000000009
20
-16.024999999999999
42
-0.41421356237309503
10
92.224999999999994
20
-16.525000000000002
10
79.224999999999994
20
-16.524999999999999
42
-0.41421356237309503
10
78.724999999999994
20
-16.024999999999999
0
LWPOLYLINE
5
276
100
AcDbEntity
8
0
100
AcDbPolyline
90
8
70
1
43
0.0
10
40.625
20
-16.024999999999999
10
40.625
20
-3.0249999999999999
42
-0.41421356237309503
10
41.125
20
-2.5249999999999999
10
54.125000000000007
20
-2.5250000000000017
42
-0.41421356237309503
10
54.625
20
-3.0249999999999999
10
54.625
20
-16.024999999999999
42
-0.41421356237309503
10
54.125000000000007
20
-16.525000000000002
10
41.125
20
-16.524999999999999
42
-0.41421356237309503
0
LWPOLYLINE
5
277
100
AcDbEntity
8
0
100
AcDbPolyline
90
8
70
1
43
0.0
10
168.92500000000001
20
-16.024999999999999
10
168.92500000000001
20
-3.0249999999999999
42
0.41421356237309503
10
168.42500000000001
20
-2.5249999999999999
10
155.42500000000001
20
-2.5249999999999999
42
0.41421356237309503
10
154.92500000000001
20
-3.0249999999999999
10
154.92500000000001
20
-16.024999999999999
42
0.41421356237309503
10
155.42500000000001
20
-16.524999999999999
10
168.42500000000001
20
-16.525000000000002
42
0.41421356237309503
0
LWPOLYLINE
5
278
100
AcDbEntity
8
0
100
AcDbPolyline
90
8
70
1
43
0.0
10
187.97499999999999
20
-16.024999999999999
10
187.97499999999999
20
-3.0249999999999999
42
0.41421356237309503
10
187.47499999999999
20
-2.5249999999999999
10
174.47500000000002
20
-2.5249999999999999
42
0.41421356237309503
10
173.97500000000002
20
-3.0249999999999999
10
173.97500000000002
20
-16.024999999999999
42
0.41421356237309503
10
174.47500000000002
20
-16.524999999999999
10
187.47499999999999
20
-16.525000000000002
42
0.41421356237309503
0
LINE
5
279
100
AcDbEntity
8
0
100
AcDbLine
10
80.311999999999998
20
-75.674999999999997
30
0
11
-0.00065759353327976555
21
-75.674999999999997
31
0
0
LINE
5
280
100
AcDbEntity
8
0
100
AcDbLine
10
117.62500000000006
20
-75.674999999999997
30
0
11
295.27499999999998
21
-75.674999999999997
31
0
0
LINE
5
281
100
AcDbEntity
8
0
100
AcDbLine
10
241.15000000000003
20
-78.724999999999994
30
0
11
241.15000000000003
21
-76.724999999999994
31
0
0
LINE
5
282
100
AcDbEntity
8
0
100
AcDbLine
10
241.15000000000003
20
-76.724999999999994
30
0
11
295.27499999999998
21
-76.724999999999994
31
0
0
LINE
5
283
100
AcDbEntity
8
0
100
AcDbLine
10
295.27499999999998
20
-76.724999999999994
30
0
11
241.45000000000007
21
-76.724999999999994
31
0
0
LWPOLYLINE
5
284
100
AcDbEntity
8
0
100
AcDbPolyline
90
8
70
1
43
0.0
10
3.0250000000000017
20
-75.975000000000051
10
3.0250000000000004
20
-76.424999999999955
42
0.41421356237309015
10
3.325000000000049
20
-76.725000000000009
10
53.824144037775511
20
-76.724999999999994
42
0.41421356237307771
10
54.124144037775551
20
-76.424999999999955
10
54.124144037775551
20
-75.975000000000051
42
0.414213562373069
10
53.824144037775511
20
-75.675000000000011
10
3.325000000000049
20
-75.674999999999997
42
0.41421356237308149
0
LINE
5
285
100
AcDbEntity
8
0
100
AcDbLine
10
292.25
20
-75.975000000000051
30
0
11
292.25
21
-76.424999999999955
31
0
0
LINE
5
286
100
AcDbEntity
8
0
100
AcDbLine
10
241.15000000000003
20
-75.974999999999994
30
0
11
241.15000000000003
21
-76.424999999999955
31
0
0
LINE
5
287
100
AcDbEntity
8
0
100
AcDbLine
10
241.44999999999999
20
-75.674999999999969
30
0
11
291.94999999999999
21
-75.674999999999983
31
0
0
LINE
5
288
100
AcDbEntity
8
0
100
AcDbLine
10
291.94999999999993
20
-76.725000000000009
30
0
11
241.15000000000003
21
-76.724999999999994
31
0
0
LWPOLYLINE
5
289
100
AcDbEntity
8
0
100
AcDbPolyline
90
8
70
1
43
0.0
10
225.57500000000002
20
-76.424999999999955
10
225.57500000000002
20
-75.975000000000051
42
0.41421356237308637
10
225.27499999999998
20
-75.675000000000011
10
174.77500000000006
20
-75.675000000000011
42
0.41421356237308637
10
174.47500000000002
20
-75.975000000000051
10
174.47500000000002
20
-76.424999999999955
42
0.41421356237309503
10
174.77500000000006
20
-76.724999999999994
10
225.27499999999998
20
-76.724999999999994
42
0.41421356237309503
0
LWPOLYLINE
5
290
100
AcDbEntity
8
0
100
AcDbPolyline
90
8
70
1
43
0.0
10
168.42500000000001
20
-76.424853182990105
10
168.42500000000001
20
-75.975000000000051
42
0.41421356237310375
10
168.12499999999997
20
-75.674999999999983
10
117.62500000000006
20
-75.674999999999997
42
0.41421356237309503
10
117.32500000000002
20
-75.975000000000051
10
117.32500000000002
20
-76.400145030815565
42
0.41407026567923017
10
117.6248532189156
20
-76.700144994907816
10
168.12485321891546
20
-76.724853147082356
42
0.41435687358815598
0
LWPOLYLINE
5
291
100
AcDbEntity
8
0
100
AcDbPolyline
90
8
70
1
43
0.0
10
60.175337953332658
20
-76.424999999999955
10
60.175337953332658
20
-75.975000000000051
42
-0.414213562373069
10
60.475337953332712
20
-75.675000000000011
10
110.97499999999997
20
-75.674999999999997
42
-0.41421356237309503
10
111.27500000000001
20
-75.975000000000051
10
111.27500000000001
20
-76.424999999999955
42
-0.41421356237312101
10
110.97499999999995
20
-76.725000000000009
10
60.475337953332712
20
-76.724999999999994
42
-0.41421356237307771
0
LINE
5
292
100
AcDbEntity
8
0
100
AcDbLine
10
111.27500000000001
20
-54.625
30
0
11
111.27500000000001
21
-75.674999999999997
31
0
0
LINE
5
293
100
AcDbEntity
8
0
100
AcDbLine
10
117.32500000000002
20
-54.625
30
0
11
117.32500000000002
21
-75.674999999999997
31
0
0
ARC
5
294
100
AcDbEntity
8
0
100
AcDbCircle
10
241.45000000000007
20
-75.975000000000023
30
0
40
0.3000000000000469
210
0
220
-0
230
1
100
AcDbArc
50
90.000000000016286
51
180
0
ARC
5
295
100
AcDbEntity
8
0
100
AcDbCircle
10
241.45000000000007
20
-76.424999999999969
30
0
40
0.3000000000000469
210
0
220
-0
230
1
100
AcDbArc
50
180
51
270
0
ARC
5
296
100
AcDbEntity
8
0
100
AcDbCircle
10
291.94999999999999
20
-75.975000000000037
30
0
40
0.3000000000000469
210
0
220
0
230
1
100
AcDbArc
50
0
51
90
0
ARC
5
297
100
AcDbEntity
8
0
100
AcDbCircle
10
291.94999999999999
20
-76.424999999999969
30
0
40
0.3000000000000469
210
0
220
0
230
1
100
AcDbArc
50
-90.0000000000109
51
0
0
ENDSEC
0
SECTION
2
OBJECTS
0
DICTIONARY
5
C
100
AcDbDictionary
3
ACAD_GROUP
350
D
3
ACAD_MLINESTYLE
350
17
0
DICTIONARY
5
D
100
AcDbDictionary
0
DICTIONARY
5
1A
330
C
100
AcDbDictionary
0
DICTIONARY
5
17
100
AcDbDictionary
0
ENDSEC
0
EOF
