M48
; DRILL file {KiCad (6.0.7)} date Tue 06 Sep 2022 15:34:57 CEST
; FORMAT={-:-/ absolute / metric / decimal}
; #@! TF.CreationDate,2022-09-06T15:34:57+02:00
; #@! TF.GenerationSoftware,Kicad,Pcbnew,(6.0.7)
; #@! TF.FileFunction,Plated,1,2,PTH
FMAT,2
METRIC
; #@! TA.AperFunction,Plated,PTH,ComponentDrill
T1C0.350
; #@! TA.AperFunction,Plated,PTH,ViaDrill
T2C0.400
; #@! TA.AperFunction,Plated,PTH,ComponentDrill
T3C0.600
; #@! TA.AperFunction,Plated,PTH,ComponentDrill
T4C0.700
; #@! TA.AperFunction,Plated,PTH,ComponentDrill
T5C1.000
; #@! TA.AperFunction,Plated,PTH,ComponentDrill
T6C1.524
%
G90
G05
T1
X248.407Y-103.19
X249.308Y-102.288
X249.308Y-104.092
X250.21Y-101.387
X250.21Y-103.19
X250.21Y-104.993
X251.112Y-102.288
X251.112Y-104.092
X252.013Y-103.19
T2
X44.175Y-87.425
X45.525Y-78.325
X51.05Y-63.24
X51.617Y-73.815
X52.125Y-63.305
X52.28Y-51.45
X52.301Y-47.025
X52.365Y-64.535
X53.57Y-74.82
X54.1Y-51.25
X54.33Y-60.11
X54.33Y-63.32
X55.19Y-54.55
X56.59Y-55.52
X57.32Y-52.39
X61.32Y-77.29
X62.41Y-77.0
X63.275Y-87.125
X69.95Y-59.31
X70.14Y-97.32
X70.35Y-64.89
X73.05Y-123.85
X75.53Y-108.365
X75.71Y-67.29
X76.025Y-56.525
X76.27Y-94.52
X77.37Y-98.85
X77.38Y-101.34
X77.41Y-63.67
X77.48Y-60.71
X78.725Y-57.95
X79.017Y-95.723
X79.017Y-104.697
X79.3Y-67.0
X82.475Y-86.925
X92.9Y-136.575
X101.425Y-86.925
X106.35Y-133.15
X110.08Y-125.21
X112.62Y-108.66
X113.73Y-128.96
X120.57Y-125.38
X120.625Y-87.2
X124.325Y-109.85
X129.29Y-98.93
X129.31Y-100.94
X129.32Y-60.73
X129.33Y-62.67
X130.15Y-126.97
X130.17Y-134.74
X130.17Y-138.89
X130.225Y-116.6
X130.99Y-60.76
X131.0Y-62.67
X131.03Y-98.94
X131.04Y-100.92
X133.57Y-101.7
X139.31Y-86.79
X143.02Y-129.11
X144.78Y-135.02
X146.57Y-126.18
X146.58Y-124.52
X146.63Y-128.21
X148.49Y-137.31
X149.0Y-134.29
X152.26Y-110.19
X158.6Y-86.975
X158.82Y-137.52
X177.75Y-87.0
X182.83Y-60.59
X182.88Y-63.62
X182.99Y-101.57
X183.05Y-98.95
X184.33Y-104.75
X184.65Y-97.48
X185.84Y-64.35
X185.92Y-60.39
X187.45Y-123.65
X189.5Y-95.47
X189.93Y-57.27
X190.04Y-67.33
X190.21Y-108.8
X190.37Y-94.45
X190.87Y-68.34
X191.03Y-56.5
X193.03Y-95.5
X193.06Y-66.95
X193.11Y-104.86
X193.16Y-57.49
X196.75Y-86.85
X215.725Y-86.85
X226.98Y-75.68
X228.295Y-63.065
X228.4Y-87.26
X228.55Y-89.85
X232.78Y-63.19
X234.875Y-87.625
X235.31Y-106.39
X238.85Y-109.205
X239.16Y-95.76
X239.16Y-99.33
X239.73Y-110.305
X240.625Y-97.005
X242.98Y-100.865
X243.26Y-99.835
X243.54Y-98.845
X244.08Y-97.835
X244.435Y-96.83
X244.94Y-95.725
X245.31Y-94.725
X245.43Y-106.58
X245.81Y-75.08
X245.845Y-93.87
X246.42Y-92.885
X246.8Y-91.855
X247.13Y-108.68
X248.16Y-109.03
X248.478Y-62.822
X249.65Y-60.325
X250.196Y-98.369
X251.73Y-75.07
X252.2Y-126.8
X252.52Y-97.52
X252.94Y-107.76
X253.01Y-103.585
X253.545Y-72.145
X254.59Y-107.59
X254.88Y-109.04
X255.12Y-103.135
X257.0Y-95.65
X257.665Y-83.565
X257.92Y-104.41
X258.7Y-100.35
X258.85Y-103.4
X260.01Y-100.24
X260.08Y-96.71
X260.71Y-99.4
X261.41Y-98.65
X263.2Y-87.225
X265.49Y-57.76
X266.94Y-98.91
X268.64Y-60.7
X270.15Y-97.47
X275.94Y-59.35
X292.27Y-68.73
T4
X225.41Y-63.5
X225.41Y-64.77
X225.41Y-66.04
X225.42Y-68.36
T5
X228.44Y-102.425
X230.98Y-102.425
X233.52Y-102.425
X236.06Y-102.425
X238.6Y-102.425
X256.005Y-52.325
X256.005Y-54.825
X256.005Y-57.325
X256.005Y-71.375
X256.005Y-73.875
X256.005Y-76.375
X270.505Y-52.325
X270.505Y-57.325
X270.505Y-71.375
X270.505Y-76.375
X294.105Y-52.325
X294.105Y-54.825
X294.105Y-57.325
X294.105Y-71.375
X294.105Y-73.875
X294.105Y-76.375
X308.605Y-52.325
X308.605Y-57.325
X308.605Y-71.375
X308.605Y-76.375
T6
X21.57Y-52.285
X21.57Y-71.335
X21.57Y-90.385
X21.57Y-109.435
X21.57Y-128.485
X27.92Y-49.745
X27.92Y-68.795
X27.92Y-87.845
X27.92Y-106.895
X27.92Y-125.945
X40.62Y-52.285
X40.62Y-71.335
X40.62Y-90.385
X40.62Y-109.435
X40.62Y-128.485
X46.97Y-49.745
X46.97Y-68.795
X46.97Y-87.845
X46.97Y-106.895
X46.97Y-125.945
X59.67Y-52.285
X59.67Y-71.335
X59.67Y-90.385
X59.67Y-109.435
X59.67Y-128.485
X66.02Y-49.745
X66.02Y-68.795
X66.02Y-87.845
X66.02Y-106.895
X66.02Y-125.945
X78.72Y-52.285
X78.72Y-71.335
X78.72Y-90.385
X78.72Y-109.435
X78.72Y-128.485
X85.07Y-49.745
X85.07Y-68.795
X85.07Y-87.845
X85.07Y-106.895
X85.07Y-125.945
X97.77Y-52.285
X97.77Y-71.335
X97.77Y-90.385
X97.77Y-109.435
X97.77Y-128.485
X104.12Y-49.745
X104.12Y-68.795
X104.12Y-87.845
X104.12Y-106.895
X104.12Y-125.945
X108.565Y-117.055
X108.565Y-136.105
X114.915Y-114.515
X114.915Y-133.565
X116.82Y-52.285
X116.82Y-71.335
X116.82Y-90.385
X116.82Y-109.435
X123.17Y-49.745
X123.17Y-68.795
X123.17Y-87.845
X123.17Y-106.895
X126.345Y-109.435
X126.345Y-128.485
X132.695Y-106.895
X132.695Y-125.945
X135.87Y-52.285
X135.87Y-71.335
X135.87Y-90.385
X135.87Y-109.435
X142.22Y-49.745
X142.22Y-68.795
X142.22Y-87.845
X142.22Y-106.895
X146.665Y-117.055
X146.665Y-136.105
X153.015Y-114.515
X153.015Y-133.565
X154.92Y-52.285
X154.92Y-71.335
X154.92Y-90.385
X154.92Y-109.435
X154.92Y-128.485
X161.27Y-49.745
X161.27Y-68.795
X161.27Y-87.845
X161.27Y-106.895
X161.27Y-125.945
X173.97Y-52.285
X173.97Y-71.335
X173.97Y-90.385
X173.97Y-109.435
X173.97Y-128.485
X180.32Y-49.745
X180.32Y-68.795
X180.32Y-87.845
X180.32Y-106.895
X180.32Y-125.945
X193.02Y-52.285
X193.02Y-71.335
X193.02Y-90.385
X193.02Y-109.435
X193.02Y-128.485
X199.37Y-49.745
X199.37Y-68.795
X199.37Y-87.845
X199.37Y-106.895
X199.37Y-125.945
X212.07Y-52.285
X212.07Y-71.335
X212.07Y-90.385
X212.07Y-109.435
X212.07Y-128.485
X218.42Y-49.745
X218.42Y-68.795
X218.42Y-87.845
X218.42Y-106.895
X218.42Y-125.945
X231.12Y-52.285
X231.12Y-71.335
X231.12Y-90.385
X231.12Y-109.435
X231.12Y-128.485
X237.47Y-49.745
X237.47Y-68.795
X237.47Y-87.845
X237.47Y-106.895
X237.47Y-125.945
X259.695Y-52.285
X259.695Y-71.335
X259.695Y-90.385
X259.695Y-109.435
X259.695Y-128.485
X266.045Y-49.745
X266.045Y-68.795
X266.045Y-87.845
X266.045Y-106.895
X266.045Y-125.945
X278.745Y-52.285
X278.745Y-71.335
X278.745Y-90.385
X278.745Y-109.435
X278.745Y-128.485
X285.095Y-49.745
X285.095Y-68.795
X285.095Y-87.845
X285.095Y-106.895
X285.095Y-125.945
X297.795Y-52.285
X297.795Y-71.335
X297.795Y-90.385
X297.795Y-109.435
X297.795Y-128.485
X304.145Y-49.745
X304.145Y-68.795
X304.145Y-87.845
X304.145Y-106.895
X304.145Y-125.945
T3
G00X49.61Y-43.28
M15
G01X49.61Y-43.88
M16
G05
G00X49.61Y-47.21
M15
G01X49.61Y-48.31
M16
G05
G00X58.25Y-43.28
M15
G01X58.25Y-43.88
M16
G05
G00X58.25Y-47.21
M15
G01X58.25Y-48.31
M16
G05
T0
M30
