%TF.GenerationSoftware,KiCad,Pcbnew,(6.0.7)*%
%TF.CreationDate,2022-09-06T15:34:50+02:00*%
%TF.ProjectId,rp2040,72703230-3430-42e6-9b69-6361645f7063,Rev1.0*%
%TF.SameCoordinates,Original*%
%TF.FileFunction,Soldermask,Bot*%
%TF.FilePolarity,Negative*%
%FSLAX46Y46*%
G04 Gerber Fmt 4.6, Leading zero omitted, Abs format (unit mm)*
G04 Created by KiCad (PCBNEW (6.0.7)) date 2022-09-06 15:34:50*
%MOMM*%
%LPD*%
G01*
G04 APERTURE LIST*
G04 Aperture macros list*
%AMRoundRect*
0 Rectangle with rounded corners*
0 $1 Rounding radius*
0 $2 $3 $4 $5 $6 $7 $8 $9 X,Y pos of 4 corners*
0 Add a 4 corners polygon primitive as box body*
4,1,4,$2,$3,$4,$5,$6,$7,$8,$9,$2,$3,0*
0 Add four circle primitives for the rounded corners*
1,1,$1+$1,$2,$3*
1,1,$1+$1,$4,$5*
1,1,$1+$1,$6,$7*
1,1,$1+$1,$8,$9*
0 Add four rect primitives between the rounded corners*
20,1,$1+$1,$2,$3,$4,$5,0*
20,1,$1+$1,$4,$5,$6,$7,0*
20,1,$1+$1,$6,$7,$8,$9,0*
20,1,$1+$1,$8,$9,$2,$3,0*%
%AMRotRect*
0 Rectangle, with rotation*
0 The origin of the aperture is its center*
0 $1 length*
0 $2 width*
0 $3 Rotation angle, in degrees counterclockwise*
0 Add horizontal line*
21,1,$1,$2,0,0,$3*%
G04 Aperture macros list end*
%ADD10C,3.048000*%
%ADD11C,3.987800*%
%ADD12C,1.750000*%
%ADD13C,2.300000*%
%ADD14R,3.200000X2.000000*%
%ADD15R,1.800000X2.000000*%
%ADD16R,2.000000X2.000000*%
%ADD17C,2.000000*%
%ADD18R,1.000000X1.000000*%
%ADD19O,1.000000X1.000000*%
%ADD20C,0.787400*%
%ADD21RoundRect,0.250000X0.250000X0.475000X-0.250000X0.475000X-0.250000X-0.475000X0.250000X-0.475000X0*%
%ADD22RoundRect,0.250000X-0.625000X0.375000X-0.625000X-0.375000X0.625000X-0.375000X0.625000X0.375000X0*%
%ADD23RotRect,0.900000X0.800000X225.000000*%
%ADD24R,1.700000X1.700000*%
%ADD25O,1.700000X1.700000*%
%ADD26RoundRect,0.050000X0.309359X-0.238649X-0.238649X0.309359X-0.309359X0.238649X0.238649X-0.309359X0*%
%ADD27RoundRect,0.050000X0.309359X0.238649X0.238649X0.309359X-0.309359X-0.238649X-0.238649X-0.309359X0*%
%ADD28RoundRect,0.144000X2.059095X0.000000X0.000000X2.059095X-2.059095X0.000000X0.000000X-2.059095X0*%
%ADD29RotRect,0.900000X0.800000X45.000000*%
%ADD30RotRect,0.900000X0.800000X135.000000*%
%ADD31RoundRect,0.250000X-0.159099X0.512652X-0.512652X0.159099X0.159099X-0.512652X0.512652X-0.159099X0*%
%ADD32C,0.650000*%
%ADD33R,0.600000X1.450000*%
%ADD34R,0.300000X1.450000*%
%ADD35O,1.000000X2.100000*%
%ADD36O,1.000000X1.600000*%
%ADD37RoundRect,0.250000X-0.262500X-0.450000X0.262500X-0.450000X0.262500X0.450000X-0.262500X0.450000X0*%
%ADD38R,0.900000X0.800000*%
%ADD39RoundRect,0.250000X0.262500X0.450000X-0.262500X0.450000X-0.262500X-0.450000X0.262500X-0.450000X0*%
%ADD40RotRect,0.900000X0.800000X315.000000*%
%ADD41RoundRect,0.150000X-0.150000X0.650000X-0.150000X-0.650000X0.150000X-0.650000X0.150000X0.650000X0*%
%ADD42RoundRect,0.250000X-0.250000X-0.475000X0.250000X-0.475000X0.250000X0.475000X-0.250000X0.475000X0*%
%ADD43RoundRect,0.150000X0.512500X0.150000X-0.512500X0.150000X-0.512500X-0.150000X0.512500X-0.150000X0*%
%ADD44RotRect,1.400000X1.200000X315.000000*%
%ADD45RoundRect,0.250000X-0.132583X0.503814X-0.503814X0.132583X0.132583X-0.503814X0.503814X-0.132583X0*%
%ADD46R,2.000000X1.500000*%
%ADD47R,2.000000X3.800000*%
%ADD48R,1.550000X1.300000*%
%ADD49RoundRect,0.250000X-0.475000X0.250000X-0.475000X-0.250000X0.475000X-0.250000X0.475000X0.250000X0*%
G04 APERTURE END LIST*
D10*
%TO.C,REF\u002A\u002A*%
X82530000Y-138010000D03*
D11*
X177780000Y-122770000D03*
D10*
X177780000Y-138010000D03*
D11*
X82530000Y-122770000D03*
%TD*%
D12*
%TO.C,SW_2*%
X49510000Y-54825000D03*
X39350000Y-54825000D03*
D11*
X44430000Y-54825000D03*
D13*
X40620000Y-52285000D03*
X46970000Y-49745000D03*
%TD*%
D12*
%TO.C,SW_15*%
X306685000Y-54825000D03*
X296525000Y-54825000D03*
D11*
X301605000Y-54825000D03*
D13*
X297795000Y-52285000D03*
X304145000Y-49745000D03*
%TD*%
D12*
%TO.C,SW55*%
X277475000Y-92925000D03*
X287635000Y-92925000D03*
D11*
X282555000Y-92925000D03*
D13*
X278745000Y-90385000D03*
X285095000Y-87845000D03*
%TD*%
D12*
%TO.C,SW17*%
X87610000Y-131025000D03*
X77450000Y-131025000D03*
D11*
X82530000Y-131025000D03*
D13*
X78720000Y-128485000D03*
X85070000Y-125945000D03*
%TD*%
D12*
%TO.C,SW59*%
X306685000Y-92925000D03*
X296525000Y-92925000D03*
D11*
X301605000Y-92925000D03*
D13*
X297795000Y-90385000D03*
X304145000Y-87845000D03*
%TD*%
D14*
%TO.C,SWrot_1_1*%
X301605000Y-79475000D03*
D15*
X301005000Y-68275000D03*
D16*
X294105000Y-71375000D03*
D17*
X294105000Y-76375000D03*
X294105000Y-73875000D03*
X308605000Y-76375000D03*
X308605000Y-71375000D03*
%TD*%
D12*
%TO.C,SW_1*%
X30460000Y-54825000D03*
D11*
X25380000Y-54825000D03*
D12*
X20300000Y-54825000D03*
D13*
X21570000Y-52285000D03*
X27920000Y-49745000D03*
%TD*%
D12*
%TO.C,SW_5*%
X106660000Y-54825000D03*
X96500000Y-54825000D03*
D11*
X101580000Y-54825000D03*
D13*
X97770000Y-52285000D03*
X104120000Y-49745000D03*
%TD*%
D11*
%TO.C,SW8*%
X44430000Y-131025000D03*
D12*
X39350000Y-131025000D03*
X49510000Y-131025000D03*
D13*
X40620000Y-128485000D03*
X46970000Y-125945000D03*
%TD*%
D12*
%TO.C,SW_4*%
X77450000Y-54825000D03*
X87610000Y-54825000D03*
D11*
X82530000Y-54825000D03*
D13*
X78720000Y-52285000D03*
X85070000Y-49745000D03*
%TD*%
D12*
%TO.C,SW52*%
X258425000Y-111975000D03*
D11*
X263505000Y-111975000D03*
D12*
X268585000Y-111975000D03*
D13*
X259695000Y-109435000D03*
X266045000Y-106895000D03*
%TD*%
D12*
%TO.C,SW_10*%
X191750000Y-54825000D03*
D11*
X196830000Y-54825000D03*
D12*
X201910000Y-54825000D03*
D13*
X193020000Y-52285000D03*
X199370000Y-49745000D03*
%TD*%
D11*
%TO.C,REF\u002A\u002A*%
X123011250Y-103720000D03*
X99198750Y-103720000D03*
D10*
X123011250Y-118960000D03*
X99198750Y-118960000D03*
%TD*%
D18*
%TO.C,J4*%
X225420000Y-68360000D03*
%TD*%
D12*
%TO.C,SW19*%
X106660000Y-92925000D03*
X96500000Y-92925000D03*
D11*
X101580000Y-92925000D03*
D13*
X97770000Y-90385000D03*
X104120000Y-87845000D03*
%TD*%
D11*
%TO.C,REF\u002A\u002A*%
X161111250Y-139280000D03*
X137298750Y-139280000D03*
D10*
X161111250Y-124040000D03*
X137298750Y-124040000D03*
%TD*%
D12*
%TO.C,SW54*%
X287635000Y-73875000D03*
X277475000Y-73875000D03*
D11*
X282555000Y-73875000D03*
D13*
X278745000Y-71335000D03*
X285095000Y-68795000D03*
%TD*%
D11*
%TO.C,SW27*%
X139680000Y-92925000D03*
D12*
X134600000Y-92925000D03*
X144760000Y-92925000D03*
D13*
X135870000Y-90385000D03*
X142220000Y-87845000D03*
%TD*%
D12*
%TO.C,SW18*%
X106660000Y-73875000D03*
D11*
X101580000Y-73875000D03*
D12*
X96500000Y-73875000D03*
D13*
X97770000Y-71335000D03*
X104120000Y-68795000D03*
%TD*%
D11*
%TO.C,SW61*%
X301605000Y-131025000D03*
D12*
X306685000Y-131025000D03*
X296525000Y-131025000D03*
D13*
X297795000Y-128485000D03*
X304145000Y-125945000D03*
%TD*%
D12*
%TO.C,SW29*%
X135235000Y-131025000D03*
D11*
X130155000Y-131025000D03*
D12*
X125075000Y-131025000D03*
D13*
X126345000Y-128485000D03*
X132695000Y-125945000D03*
%TD*%
D11*
%TO.C,SW53*%
X263505000Y-131025000D03*
D12*
X268585000Y-131025000D03*
X258425000Y-131025000D03*
D13*
X259695000Y-128485000D03*
X266045000Y-125945000D03*
%TD*%
D12*
%TO.C,SW49*%
X229850000Y-131025000D03*
X240010000Y-131025000D03*
D11*
X234930000Y-131025000D03*
D13*
X231120000Y-128485000D03*
X237470000Y-125945000D03*
%TD*%
D12*
%TO.C,SW43*%
X220960000Y-92925000D03*
D11*
X215880000Y-92925000D03*
D12*
X210800000Y-92925000D03*
D13*
X212070000Y-90385000D03*
X218420000Y-87845000D03*
%TD*%
D11*
%TO.C,SW40*%
X196830000Y-111975000D03*
D12*
X191750000Y-111975000D03*
X201910000Y-111975000D03*
D13*
X193020000Y-109435000D03*
X199370000Y-106895000D03*
%TD*%
D12*
%TO.C,SW26*%
X134600000Y-73875000D03*
X144760000Y-73875000D03*
D11*
X139680000Y-73875000D03*
D13*
X135870000Y-71335000D03*
X142220000Y-68795000D03*
%TD*%
D12*
%TO.C,SW29_3*%
X154285000Y-111975000D03*
D11*
X149205000Y-111975000D03*
D12*
X144125000Y-111975000D03*
D13*
X153015000Y-114515000D03*
X146665000Y-117055000D03*
%TD*%
D11*
%TO.C,SW_8*%
X158730000Y-54825000D03*
D12*
X163810000Y-54825000D03*
X153650000Y-54825000D03*
D13*
X154920000Y-52285000D03*
X161270000Y-49745000D03*
%TD*%
D12*
%TO.C,SW56*%
X287635000Y-111975000D03*
X277475000Y-111975000D03*
D11*
X282555000Y-111975000D03*
D13*
X278745000Y-109435000D03*
X285095000Y-106895000D03*
%TD*%
D12*
%TO.C,SW14*%
X87610000Y-73875000D03*
D11*
X82530000Y-73875000D03*
D12*
X77450000Y-73875000D03*
D13*
X78720000Y-71335000D03*
X85070000Y-68795000D03*
%TD*%
D12*
%TO.C,SW33*%
X163810000Y-131025000D03*
X153650000Y-131025000D03*
D11*
X158730000Y-131025000D03*
D13*
X154920000Y-128485000D03*
X161270000Y-125945000D03*
%TD*%
D11*
%TO.C,SW_6*%
X120630000Y-54825000D03*
D12*
X125710000Y-54825000D03*
X115550000Y-54825000D03*
D13*
X116820000Y-52285000D03*
X123170000Y-49745000D03*
%TD*%
D12*
%TO.C,SW60*%
X296525000Y-111975000D03*
D11*
X301605000Y-111975000D03*
D12*
X306685000Y-111975000D03*
D13*
X297795000Y-109435000D03*
X304145000Y-106895000D03*
%TD*%
D11*
%TO.C,SW34*%
X177780000Y-73875000D03*
D12*
X172700000Y-73875000D03*
X182860000Y-73875000D03*
D13*
X173970000Y-71335000D03*
X180320000Y-68795000D03*
%TD*%
D11*
%TO.C,SW29_2*%
X130155000Y-111975000D03*
D12*
X135235000Y-111975000D03*
X125075000Y-111975000D03*
D13*
X126345000Y-109435000D03*
X132695000Y-106895000D03*
%TD*%
D12*
%TO.C,SW_9*%
X182860000Y-54825000D03*
D11*
X177780000Y-54825000D03*
D12*
X172700000Y-54825000D03*
D13*
X173970000Y-52285000D03*
X180320000Y-49745000D03*
%TD*%
D11*
%TO.C,SW47*%
X234930000Y-92925000D03*
D12*
X229850000Y-92925000D03*
X240010000Y-92925000D03*
D13*
X231120000Y-90385000D03*
X237470000Y-87845000D03*
%TD*%
D12*
%TO.C,SW51*%
X268585000Y-92925000D03*
X258425000Y-92925000D03*
D11*
X263505000Y-92925000D03*
D13*
X259695000Y-90385000D03*
X266045000Y-87845000D03*
%TD*%
D12*
%TO.C,SW29_1*%
X144125000Y-131025000D03*
D11*
X149205000Y-131025000D03*
D12*
X154285000Y-131025000D03*
D13*
X153015000Y-133565000D03*
X146665000Y-136105000D03*
%TD*%
D12*
%TO.C,SW1*%
X30460000Y-73875000D03*
X20300000Y-73875000D03*
D11*
X25380000Y-73875000D03*
D13*
X21570000Y-71335000D03*
X27920000Y-68795000D03*
%TD*%
D12*
%TO.C,SW22*%
X125710000Y-73875000D03*
D11*
X120630000Y-73875000D03*
D12*
X115550000Y-73875000D03*
D13*
X116820000Y-71335000D03*
X123170000Y-68795000D03*
%TD*%
D11*
%TO.C,SW36*%
X177780000Y-111975000D03*
D12*
X172700000Y-111975000D03*
X182860000Y-111975000D03*
D13*
X173970000Y-109435000D03*
X180320000Y-106895000D03*
%TD*%
D11*
%TO.C,SW7*%
X44430000Y-111975000D03*
D12*
X39350000Y-111975000D03*
X49510000Y-111975000D03*
D13*
X40620000Y-109435000D03*
X46970000Y-106895000D03*
%TD*%
D11*
%TO.C,SW_13*%
X263505000Y-54825000D03*
D12*
X258425000Y-54825000D03*
X268585000Y-54825000D03*
D13*
X259695000Y-52285000D03*
X266045000Y-49745000D03*
%TD*%
D12*
%TO.C,SW45*%
X210800000Y-131025000D03*
X220960000Y-131025000D03*
D11*
X215880000Y-131025000D03*
D13*
X212070000Y-128485000D03*
X218420000Y-125945000D03*
%TD*%
D12*
%TO.C,SW23*%
X115550000Y-92925000D03*
D11*
X120630000Y-92925000D03*
D12*
X125710000Y-92925000D03*
D13*
X116820000Y-90385000D03*
X123170000Y-87845000D03*
%TD*%
D10*
%TO.C,REF\u002A\u002A*%
X118248750Y-118960000D03*
D11*
X118248750Y-103720000D03*
X142061250Y-103720000D03*
D10*
X142061250Y-118960000D03*
%TD*%
D12*
%TO.C,SW35*%
X172700000Y-92925000D03*
D11*
X177780000Y-92925000D03*
D12*
X182860000Y-92925000D03*
D13*
X173970000Y-90385000D03*
X180320000Y-87845000D03*
%TD*%
D11*
%TO.C,SW24*%
X120630000Y-111975000D03*
D12*
X115550000Y-111975000D03*
X125710000Y-111975000D03*
D13*
X116820000Y-109435000D03*
X123170000Y-106895000D03*
%TD*%
D12*
%TO.C,SW46*%
X229850000Y-73875000D03*
X240010000Y-73875000D03*
D11*
X234930000Y-73875000D03*
D13*
X231120000Y-71335000D03*
X237470000Y-68795000D03*
%TD*%
D12*
%TO.C,SW30*%
X153650000Y-73875000D03*
D11*
X158730000Y-73875000D03*
D12*
X163810000Y-73875000D03*
D13*
X154920000Y-71335000D03*
X161270000Y-68795000D03*
%TD*%
D11*
%TO.C,SW6*%
X44430000Y-92925000D03*
D12*
X39350000Y-92925000D03*
X49510000Y-92925000D03*
D13*
X40620000Y-90385000D03*
X46970000Y-87845000D03*
%TD*%
D12*
%TO.C,SW12*%
X58400000Y-131025000D03*
X68560000Y-131025000D03*
D11*
X63480000Y-131025000D03*
D13*
X59670000Y-128485000D03*
X66020000Y-125945000D03*
%TD*%
D12*
%TO.C,SW_12*%
X229850000Y-54825000D03*
D11*
X234930000Y-54825000D03*
D12*
X240010000Y-54825000D03*
D13*
X231120000Y-52285000D03*
X237470000Y-49745000D03*
%TD*%
D12*
%TO.C,SW9*%
X58400000Y-73875000D03*
X68560000Y-73875000D03*
D11*
X63480000Y-73875000D03*
D13*
X59670000Y-71335000D03*
X66020000Y-68795000D03*
%TD*%
D12*
%TO.C,SW31*%
X153650000Y-92925000D03*
X163810000Y-92925000D03*
D11*
X158730000Y-92925000D03*
D13*
X154920000Y-90385000D03*
X161270000Y-87845000D03*
%TD*%
D12*
%TO.C,SW_7*%
X134600000Y-54825000D03*
D11*
X139680000Y-54825000D03*
D12*
X144760000Y-54825000D03*
D13*
X135870000Y-52285000D03*
X142220000Y-49745000D03*
%TD*%
D18*
%TO.C,J2*%
X225410000Y-63500000D03*
D19*
X225410000Y-64770000D03*
X225410000Y-66040000D03*
%TD*%
D10*
%TO.C,REF\u002A\u002A*%
X137298750Y-118960000D03*
D11*
X137298750Y-103720000D03*
X161111250Y-103720000D03*
D10*
X161111250Y-118960000D03*
%TD*%
D12*
%TO.C,SW15*%
X77450000Y-92925000D03*
D11*
X82530000Y-92925000D03*
D12*
X87610000Y-92925000D03*
D13*
X78720000Y-90385000D03*
X85070000Y-87845000D03*
%TD*%
D12*
%TO.C,SW25*%
X116185000Y-131025000D03*
X106025000Y-131025000D03*
D11*
X111105000Y-131025000D03*
D13*
X114915000Y-133565000D03*
X108565000Y-136105000D03*
%TD*%
D11*
%TO.C,SW4*%
X25380000Y-131025000D03*
D12*
X30460000Y-131025000D03*
X20300000Y-131025000D03*
D13*
X21570000Y-128485000D03*
X27920000Y-125945000D03*
%TD*%
D11*
%TO.C,REF\u002A\u002A*%
X177780000Y-103720000D03*
D10*
X177780000Y-118960000D03*
X82530000Y-118960000D03*
D11*
X82530000Y-103720000D03*
%TD*%
%TO.C,SW28*%
X139680000Y-111975000D03*
D12*
X144760000Y-111975000D03*
X134600000Y-111975000D03*
D13*
X135870000Y-109435000D03*
X142220000Y-106895000D03*
%TD*%
D11*
%TO.C,SW5*%
X44430000Y-73875000D03*
D12*
X49510000Y-73875000D03*
X39350000Y-73875000D03*
D13*
X40620000Y-71335000D03*
X46970000Y-68795000D03*
%TD*%
D12*
%TO.C,SW37*%
X182860000Y-131025000D03*
X172700000Y-131025000D03*
D11*
X177780000Y-131025000D03*
D13*
X173970000Y-128485000D03*
X180320000Y-125945000D03*
%TD*%
D12*
%TO.C,SW42*%
X210800000Y-73875000D03*
X220960000Y-73875000D03*
D11*
X215880000Y-73875000D03*
D13*
X212070000Y-71335000D03*
X218420000Y-68795000D03*
%TD*%
D12*
%TO.C,SW11*%
X68560000Y-111975000D03*
D11*
X63480000Y-111975000D03*
D12*
X58400000Y-111975000D03*
D13*
X59670000Y-109435000D03*
X66020000Y-106895000D03*
%TD*%
D12*
%TO.C,SW58*%
X306685000Y-73875000D03*
X296525000Y-73875000D03*
D11*
X301605000Y-73875000D03*
D13*
X297795000Y-71335000D03*
X304145000Y-68795000D03*
%TD*%
D11*
%TO.C,SW3*%
X25380000Y-111975000D03*
D12*
X20300000Y-111975000D03*
X30460000Y-111975000D03*
D13*
X21570000Y-109435000D03*
X27920000Y-106895000D03*
%TD*%
D11*
%TO.C,SW39*%
X196830000Y-92925000D03*
D12*
X201910000Y-92925000D03*
X191750000Y-92925000D03*
D13*
X193020000Y-90385000D03*
X199370000Y-87845000D03*
%TD*%
D20*
%TO.C,REF\u002A\u002A*%
X255210000Y-121476000D03*
X253940000Y-121476000D03*
X252670000Y-121476000D03*
X251400000Y-121476000D03*
X256480000Y-121476000D03*
%TD*%
D11*
%TO.C,SW_3*%
X63480000Y-54825000D03*
D12*
X58400000Y-54825000D03*
X68560000Y-54825000D03*
D13*
X59670000Y-52285000D03*
X66020000Y-49745000D03*
%TD*%
D11*
%TO.C,SW21*%
X101580000Y-131025000D03*
D12*
X96500000Y-131025000D03*
X106660000Y-131025000D03*
D13*
X97770000Y-128485000D03*
X104120000Y-125945000D03*
%TD*%
D15*
%TO.C,SWrot_2_2*%
X262905000Y-49225000D03*
D14*
X263505000Y-60425000D03*
D16*
X256005000Y-52325000D03*
D17*
X256005000Y-57325000D03*
X256005000Y-54825000D03*
X270505000Y-57325000D03*
X270505000Y-52325000D03*
%TD*%
D12*
%TO.C,SW_14*%
X287635000Y-54825000D03*
X277475000Y-54825000D03*
D11*
X282555000Y-54825000D03*
D13*
X278745000Y-52285000D03*
X285095000Y-49745000D03*
%TD*%
D12*
%TO.C,SW38*%
X191750000Y-73875000D03*
D11*
X196830000Y-73875000D03*
D12*
X201910000Y-73875000D03*
D13*
X193020000Y-71335000D03*
X199370000Y-68795000D03*
%TD*%
D15*
%TO.C,SWrot_1*%
X301005000Y-49225000D03*
D14*
X301605000Y-60425000D03*
D16*
X294105000Y-52325000D03*
D17*
X294105000Y-57325000D03*
X294105000Y-54825000D03*
X308605000Y-57325000D03*
X308605000Y-52325000D03*
%TD*%
D11*
%TO.C,SW25_1*%
X111105000Y-111975000D03*
D12*
X116185000Y-111975000D03*
X106025000Y-111975000D03*
D13*
X114915000Y-114515000D03*
X108565000Y-117055000D03*
%TD*%
D11*
%TO.C,SW20*%
X101580000Y-111975000D03*
D12*
X96500000Y-111975000D03*
X106660000Y-111975000D03*
D13*
X97770000Y-109435000D03*
X104120000Y-106895000D03*
%TD*%
D12*
%TO.C,SW10*%
X58400000Y-92925000D03*
X68560000Y-92925000D03*
D11*
X63480000Y-92925000D03*
D13*
X59670000Y-90385000D03*
X66020000Y-87845000D03*
%TD*%
D11*
%TO.C,SW16*%
X82530000Y-111975000D03*
D12*
X87610000Y-111975000D03*
X77450000Y-111975000D03*
D13*
X78720000Y-109435000D03*
X85070000Y-106895000D03*
%TD*%
D12*
%TO.C,SW2*%
X30460000Y-92925000D03*
D11*
X25380000Y-92925000D03*
D12*
X20300000Y-92925000D03*
D13*
X21570000Y-90385000D03*
X27920000Y-87845000D03*
%TD*%
D12*
%TO.C,SW50*%
X268585000Y-73875000D03*
D11*
X263505000Y-73875000D03*
D12*
X258425000Y-73875000D03*
D13*
X259695000Y-71335000D03*
X266045000Y-68795000D03*
%TD*%
D11*
%TO.C,SW44*%
X215880000Y-111975000D03*
D12*
X220960000Y-111975000D03*
X210800000Y-111975000D03*
D13*
X212070000Y-109435000D03*
X218420000Y-106895000D03*
%TD*%
D11*
%TO.C,SW_11*%
X215880000Y-54825000D03*
D12*
X210800000Y-54825000D03*
X220960000Y-54825000D03*
D13*
X212070000Y-52285000D03*
X218420000Y-49745000D03*
%TD*%
D20*
%TO.C,REF\u002A\u002A*%
X241570000Y-121450000D03*
X245380000Y-121450000D03*
X246650000Y-121450000D03*
X242840000Y-121450000D03*
X244110000Y-121450000D03*
%TD*%
D11*
%TO.C,SW41*%
X196830000Y-131025000D03*
D12*
X201910000Y-131025000D03*
X191750000Y-131025000D03*
D13*
X193020000Y-128485000D03*
X199370000Y-125945000D03*
%TD*%
D10*
%TO.C,REF\u002A\u002A*%
X118248750Y-124040000D03*
D11*
X118248750Y-139280000D03*
X142061250Y-139280000D03*
D10*
X142061250Y-124040000D03*
%TD*%
D14*
%TO.C,SWrot_2*%
X263505000Y-79475000D03*
D16*
X262905000Y-68275000D03*
X256005000Y-71375000D03*
D17*
X256005000Y-76375000D03*
X256005000Y-73875000D03*
X270505000Y-76375000D03*
X270505000Y-71375000D03*
%TD*%
D10*
%TO.C,REF\u002A\u002A*%
X99198750Y-124040000D03*
D11*
X123011250Y-139280000D03*
D10*
X123011250Y-124040000D03*
D11*
X99198750Y-139280000D03*
%TD*%
D12*
%TO.C,SW32*%
X163810000Y-111975000D03*
D11*
X158730000Y-111975000D03*
D12*
X153650000Y-111975000D03*
D13*
X154920000Y-109435000D03*
X161270000Y-106895000D03*
%TD*%
D12*
%TO.C,SW48*%
X229850000Y-111975000D03*
D11*
X234930000Y-111975000D03*
D12*
X240010000Y-111975000D03*
D13*
X231120000Y-109435000D03*
X237470000Y-106895000D03*
%TD*%
D12*
%TO.C,SW57*%
X287635000Y-131025000D03*
X277475000Y-131025000D03*
D11*
X282555000Y-131025000D03*
D13*
X278745000Y-128485000D03*
X285095000Y-125945000D03*
%TD*%
D21*
%TO.C,C9*%
X244940000Y-90210000D03*
X243040000Y-90210000D03*
%TD*%
D22*
%TO.C,F0*%
X51760000Y-51540000D03*
X51760000Y-54340000D03*
%TD*%
D23*
%TO.C,D12*%
X127715355Y-64551142D03*
X129058858Y-65894645D03*
X126972893Y-66637107D03*
%TD*%
%TO.C,D9*%
X67755355Y-102621142D03*
X69098858Y-103964645D03*
X67012893Y-104707107D03*
%TD*%
D24*
%TO.C,J1*%
X238600000Y-102425000D03*
D25*
X236060000Y-102425000D03*
X233520000Y-102425000D03*
X230980000Y-102425000D03*
X228440000Y-102425000D03*
%TD*%
D26*
%TO.C,U3*%
X254479157Y-103782202D03*
X254196314Y-104065045D03*
X253913472Y-104347887D03*
X253630629Y-104630730D03*
X253347786Y-104913573D03*
X253064944Y-105196415D03*
X252782101Y-105479258D03*
X252499258Y-105762101D03*
X252216415Y-106044944D03*
X251933573Y-106327786D03*
X251650730Y-106610629D03*
X251367887Y-106893472D03*
X251085045Y-107176314D03*
X250802202Y-107459157D03*
D27*
X249617798Y-107459157D03*
X249334955Y-107176314D03*
X249052113Y-106893472D03*
X248769270Y-106610629D03*
X248486427Y-106327786D03*
X248203585Y-106044944D03*
X247920742Y-105762101D03*
X247637899Y-105479258D03*
X247355056Y-105196415D03*
X247072214Y-104913573D03*
X246789371Y-104630730D03*
X246506528Y-104347887D03*
X246223686Y-104065045D03*
X245940843Y-103782202D03*
D26*
X245940843Y-102597798D03*
X246223686Y-102314955D03*
X246506528Y-102032113D03*
X246789371Y-101749270D03*
X247072214Y-101466427D03*
X247355056Y-101183585D03*
X247637899Y-100900742D03*
X247920742Y-100617899D03*
X248203585Y-100335056D03*
X248486427Y-100052214D03*
X248769270Y-99769371D03*
X249052113Y-99486528D03*
X249334955Y-99203686D03*
X249617798Y-98920843D03*
D27*
X250802202Y-98920843D03*
X251085045Y-99203686D03*
X251367887Y-99486528D03*
X251650730Y-99769371D03*
X251933573Y-100052214D03*
X252216415Y-100335056D03*
X252499258Y-100617899D03*
X252782101Y-100900742D03*
X253064944Y-101183585D03*
X253347786Y-101466427D03*
X253630629Y-101749270D03*
X253913472Y-102032113D03*
X254196314Y-102314955D03*
X254479157Y-102597798D03*
D28*
X250210000Y-103190000D03*
%TD*%
D29*
%TO.C,D36*%
X278284645Y-59738858D03*
X276941142Y-58395355D03*
X279027107Y-57652893D03*
%TD*%
%TO.C,D16*%
X132584645Y-59728858D03*
X131241142Y-58385355D03*
X133327107Y-57642893D03*
%TD*%
D21*
%TO.C,C5*%
X227490000Y-86460000D03*
X225590000Y-86460000D03*
%TD*%
%TO.C,C15*%
X227510000Y-84370000D03*
X225610000Y-84370000D03*
%TD*%
D23*
%TO.C,D7*%
X68135355Y-64596142D03*
X69478858Y-65939645D03*
X67392893Y-66682107D03*
%TD*%
D30*
%TO.C,D33*%
X269128858Y-96525355D03*
X267785355Y-97868858D03*
X267042893Y-95782893D03*
%TD*%
D31*
%TO.C,C2*%
X247361751Y-111398249D03*
X246018249Y-112741751D03*
%TD*%
D23*
%TO.C,D22*%
X182015355Y-64551142D03*
X183358858Y-65894645D03*
X181272893Y-66637107D03*
%TD*%
D29*
%TO.C,D1*%
X78264645Y-59753858D03*
X76921142Y-58410355D03*
X79007107Y-57667893D03*
%TD*%
D31*
%TO.C,C3*%
X242831751Y-106858249D03*
X241488249Y-108201751D03*
%TD*%
D32*
%TO.C,J0*%
X56820000Y-47230000D03*
X51040000Y-47230000D03*
D33*
X50680000Y-48675000D03*
X51480000Y-48675000D03*
D34*
X52680000Y-48675000D03*
X53680000Y-48675000D03*
X54180000Y-48675000D03*
X55180000Y-48675000D03*
D33*
X56380000Y-48675000D03*
X57180000Y-48675000D03*
X57180000Y-48675000D03*
X56380000Y-48675000D03*
D34*
X55680000Y-48675000D03*
X54680000Y-48675000D03*
X53180000Y-48675000D03*
X52180000Y-48675000D03*
D33*
X51480000Y-48675000D03*
X50680000Y-48675000D03*
D35*
X58250000Y-47760000D03*
D36*
X58250000Y-43580000D03*
X49610000Y-43580000D03*
D35*
X49610000Y-47760000D03*
%TD*%
D37*
%TO.C,R4*%
X225627500Y-79410000D03*
X227452500Y-79410000D03*
%TD*%
D21*
%TO.C,C10*%
X244940000Y-92270000D03*
X243040000Y-92270000D03*
%TD*%
D38*
%TO.C,D35*%
X251500000Y-131050000D03*
X251500000Y-132950000D03*
X249500000Y-132000000D03*
%TD*%
%TO.C,D15*%
X119625000Y-129775000D03*
X119625000Y-127875000D03*
X121625000Y-128825000D03*
%TD*%
D21*
%TO.C,C8*%
X258700000Y-100350000D03*
X256800000Y-100350000D03*
%TD*%
D37*
%TO.C,R3*%
X225627500Y-77390000D03*
X227452500Y-77390000D03*
%TD*%
D39*
%TO.C,R8*%
X227482500Y-82040000D03*
X225657500Y-82040000D03*
%TD*%
D40*
%TO.C,D27*%
X191201142Y-65894645D03*
X192544645Y-64551142D03*
X193287107Y-66637107D03*
%TD*%
D29*
%TO.C,D28*%
X192564645Y-97858858D03*
X191221142Y-96515355D03*
X193307107Y-95772893D03*
%TD*%
%TO.C,D26*%
X192564645Y-59748858D03*
X191221142Y-58405355D03*
X193307107Y-57662893D03*
%TD*%
D41*
%TO.C,U2*%
X248705000Y-82600000D03*
X249975000Y-82600000D03*
X251245000Y-82600000D03*
X252515000Y-82600000D03*
X252515000Y-89800000D03*
X251245000Y-89800000D03*
X249975000Y-89800000D03*
X248705000Y-89800000D03*
%TD*%
D30*
%TO.C,D13*%
X129058858Y-96555355D03*
X127715355Y-97898858D03*
X126972893Y-95812893D03*
%TD*%
D29*
%TO.C,D18*%
X132584645Y-97898858D03*
X131241142Y-96555355D03*
X133327107Y-95812893D03*
%TD*%
D40*
%TO.C,D19*%
X131241142Y-103924645D03*
X132584645Y-102581142D03*
X133327107Y-104667107D03*
%TD*%
D37*
%TO.C,R6*%
X62267500Y-47750000D03*
X64092500Y-47750000D03*
%TD*%
D40*
%TO.C,D17*%
X131241142Y-65894645D03*
X132584645Y-64551142D03*
X133327107Y-66637107D03*
%TD*%
%TO.C,D29*%
X191241142Y-103924645D03*
X192584645Y-102581142D03*
X193327107Y-104667107D03*
%TD*%
D42*
%TO.C,C1*%
X51080000Y-84850000D03*
X52980000Y-84850000D03*
%TD*%
D43*
%TO.C,U44*%
X56377500Y-51450000D03*
X56377500Y-52400000D03*
X56377500Y-53350000D03*
X54102500Y-53350000D03*
X54102500Y-52400000D03*
X54102500Y-51450000D03*
%TD*%
D39*
%TO.C,R7*%
X45042500Y-47750000D03*
X43217500Y-47750000D03*
%TD*%
D38*
%TO.C,D20*%
X140650000Y-127875000D03*
X140650000Y-129775000D03*
X138650000Y-128825000D03*
%TD*%
D21*
%TO.C,C6*%
X258690000Y-96230000D03*
X256790000Y-96230000D03*
%TD*%
D29*
%TO.C,D5*%
X124814645Y-136228858D03*
X123471142Y-134885355D03*
X125557107Y-134142893D03*
%TD*%
D44*
%TO.C,Y0*%
X244253223Y-108421142D03*
X245808858Y-109976777D03*
X244606777Y-111178858D03*
X243051142Y-109623223D03*
%TD*%
D40*
%TO.C,D2*%
X76921142Y-65939645D03*
X78264645Y-64596142D03*
X79007107Y-66682107D03*
%TD*%
D45*
%TO.C,R5*%
X241355235Y-105444765D03*
X240064765Y-106735235D03*
%TD*%
D46*
%TO.C,U1*%
X51590000Y-82380000D03*
D47*
X57890000Y-80080000D03*
D46*
X51590000Y-80080000D03*
X51590000Y-77780000D03*
%TD*%
D48*
%TO.C,BOOT*%
X245225000Y-70580000D03*
X253175000Y-70580000D03*
X245225000Y-75080000D03*
X253175000Y-75080000D03*
%TD*%
D49*
%TO.C,C4*%
X60230000Y-81030000D03*
X60230000Y-82930000D03*
%TD*%
D40*
%TO.C,D4*%
X76931142Y-103954645D03*
X78274645Y-102611142D03*
X79017107Y-104697107D03*
%TD*%
%TO.C,D37*%
X276931142Y-65894645D03*
X278274645Y-64551142D03*
X279017107Y-66637107D03*
%TD*%
D23*
%TO.C,D24*%
X182035355Y-102581142D03*
X183378858Y-103924645D03*
X181292893Y-104667107D03*
%TD*%
D21*
%TO.C,C7*%
X258690000Y-98290000D03*
X256790000Y-98290000D03*
%TD*%
%TO.C,C14*%
X244960000Y-82030000D03*
X243060000Y-82030000D03*
%TD*%
D30*
%TO.C,D21*%
X183378858Y-58385355D03*
X182035355Y-59728858D03*
X181292893Y-57642893D03*
%TD*%
D21*
%TO.C,C12*%
X244940000Y-86110000D03*
X243040000Y-86110000D03*
%TD*%
D29*
%TO.C,D3*%
X78274645Y-97808858D03*
X76931142Y-96465355D03*
X79017107Y-95722893D03*
%TD*%
D30*
%TO.C,D6*%
X69103858Y-58385355D03*
X67760355Y-59728858D03*
X67017893Y-57642893D03*
%TD*%
D38*
%TO.C,D10*%
X119625000Y-134025000D03*
X119625000Y-132125000D03*
X121625000Y-133075000D03*
%TD*%
D29*
%TO.C,D8*%
X67684645Y-97808858D03*
X66341142Y-96465355D03*
X68427107Y-95722893D03*
%TD*%
D38*
%TO.C,D25*%
X140675000Y-132125000D03*
X140675000Y-134025000D03*
X138675000Y-133075000D03*
%TD*%
D21*
%TO.C,C13*%
X244940000Y-84080000D03*
X243040000Y-84080000D03*
%TD*%
D30*
%TO.C,D30*%
X136803858Y-134885355D03*
X135460355Y-136228858D03*
X134717893Y-134142893D03*
%TD*%
D23*
%TO.C,D34*%
X267765355Y-102581142D03*
X269108858Y-103924645D03*
X267022893Y-104667107D03*
%TD*%
D30*
%TO.C,D31*%
X269118858Y-58395355D03*
X267775355Y-59738858D03*
X267032893Y-57652893D03*
%TD*%
%TO.C,D11*%
X129048858Y-58385355D03*
X127705355Y-59728858D03*
X126962893Y-57642893D03*
%TD*%
D23*
%TO.C,D14*%
X127715355Y-102581142D03*
X129058858Y-103924645D03*
X126972893Y-104667107D03*
%TD*%
D30*
%TO.C,D23*%
X183378858Y-96515355D03*
X182035355Y-97858858D03*
X181292893Y-95772893D03*
%TD*%
D29*
%TO.C,D38*%
X278274645Y-97848858D03*
X276931142Y-96505355D03*
X279017107Y-95762893D03*
%TD*%
D38*
%TO.C,D40*%
X251500000Y-134750000D03*
X251500000Y-136650000D03*
X249500000Y-135700000D03*
%TD*%
D21*
%TO.C,C11*%
X244940000Y-88160000D03*
X243040000Y-88160000D03*
%TD*%
D23*
%TO.C,D32*%
X267785355Y-64551142D03*
X269128858Y-65894645D03*
X267042893Y-66637107D03*
%TD*%
D39*
%TO.C,R1*%
X246792500Y-77170000D03*
X244967500Y-77170000D03*
%TD*%
D40*
%TO.C,D39*%
X276941142Y-103924645D03*
X278284645Y-102581142D03*
X279027107Y-104667107D03*
%TD*%
D48*
%TO.C,RESET*%
X245215000Y-68365000D03*
X253165000Y-68365000D03*
X253165000Y-63865000D03*
X245215000Y-63865000D03*
%TD*%
M02*
