M48
; DRILL file {KiCad (6.0.7)} date Tue 06 Sep 2022 15:34:57 CEST
; FORMAT={-:-/ absolute / metric / decimal}
; #@! TF.CreationDate,2022-09-06T15:34:57+02:00
; #@! TF.GenerationSoftware,Kicad,Pcbnew,(6.0.7)
; #@! TF.FileFunction,NonPlated,1,2,NPTH
FMAT,2
METRIC
; #@! TA.AperFunction,NonPlated,NPTH,ComponentDrill
T1C0.650
; #@! TA.AperFunction,NonPlated,NPTH,ComponentDrill
T2C0.787
; #@! TA.AperFunction,NonPlated,NPTH,ComponentDrill
T3C1.500
; #@! TA.AperFunction,NonPlated,NPTH,ComponentDrill
T4C1.750
; #@! TA.AperFunction,NonPlated,NPTH,ComponentDrill
T5C3.048
; #@! TA.AperFunction,NonPlated,NPTH,ComponentDrill
T6C3.988
%
G90
G05
T1
X51.04Y-47.23
X56.82Y-47.23
T2
X241.57Y-121.45
X242.84Y-121.45
X244.11Y-121.45
X245.38Y-121.45
X246.65Y-121.45
X251.4Y-121.476
X252.67Y-121.476
X253.94Y-121.476
X255.21Y-121.476
X256.48Y-121.476
T4
X20.3Y-54.825
X20.3Y-73.875
X20.3Y-92.925
X20.3Y-111.975
X20.3Y-131.025
X30.46Y-54.825
X30.46Y-73.875
X30.46Y-92.925
X30.46Y-111.975
X30.46Y-131.025
X39.35Y-54.825
X39.35Y-73.875
X39.35Y-92.925
X39.35Y-111.975
X39.35Y-131.025
X49.51Y-54.825
X49.51Y-73.875
X49.51Y-92.925
X49.51Y-111.975
X49.51Y-131.025
X58.4Y-54.825
X58.4Y-73.875
X58.4Y-92.925
X58.4Y-111.975
X58.4Y-131.025
X68.56Y-54.825
X68.56Y-73.875
X68.56Y-92.925
X68.56Y-111.975
X68.56Y-131.025
X77.45Y-54.825
X77.45Y-73.875
X77.45Y-92.925
X77.45Y-111.975
X77.45Y-131.025
X87.61Y-54.825
X87.61Y-73.875
X87.61Y-92.925
X87.61Y-111.975
X87.61Y-131.025
X96.5Y-54.825
X96.5Y-73.875
X96.5Y-92.925
X96.5Y-111.975
X96.5Y-131.025
X106.025Y-111.975
X106.025Y-131.025
X106.66Y-54.825
X106.66Y-73.875
X106.66Y-92.925
X106.66Y-111.975
X106.66Y-131.025
X115.55Y-54.825
X115.55Y-73.875
X115.55Y-92.925
X115.55Y-111.975
X116.185Y-111.975
X116.185Y-131.025
X125.075Y-111.975
X125.075Y-131.025
X125.71Y-54.825
X125.71Y-73.875
X125.71Y-92.925
X125.71Y-111.975
X134.6Y-54.825
X134.6Y-73.875
X134.6Y-92.925
X134.6Y-111.975
X135.235Y-111.975
X135.235Y-131.025
X144.125Y-111.975
X144.125Y-131.025
X144.76Y-54.825
X144.76Y-73.875
X144.76Y-92.925
X144.76Y-111.975
X153.65Y-54.825
X153.65Y-73.875
X153.65Y-92.925
X153.65Y-111.975
X153.65Y-131.025
X154.285Y-111.975
X154.285Y-131.025
X163.81Y-54.825
X163.81Y-73.875
X163.81Y-92.925
X163.81Y-111.975
X163.81Y-131.025
X172.7Y-54.825
X172.7Y-73.875
X172.7Y-92.925
X172.7Y-111.975
X172.7Y-131.025
X182.86Y-54.825
X182.86Y-73.875
X182.86Y-92.925
X182.86Y-111.975
X182.86Y-131.025
X191.75Y-54.825
X191.75Y-73.875
X191.75Y-92.925
X191.75Y-111.975
X191.75Y-131.025
X201.91Y-54.825
X201.91Y-73.875
X201.91Y-92.925
X201.91Y-111.975
X201.91Y-131.025
X210.8Y-54.825
X210.8Y-73.875
X210.8Y-92.925
X210.8Y-111.975
X210.8Y-131.025
X220.96Y-54.825
X220.96Y-73.875
X220.96Y-92.925
X220.96Y-111.975
X220.96Y-131.025
X229.85Y-54.825
X229.85Y-73.875
X229.85Y-92.925
X229.85Y-111.975
X229.85Y-131.025
X240.01Y-54.825
X240.01Y-73.875
X240.01Y-92.925
X240.01Y-111.975
X240.01Y-131.025
X258.425Y-54.825
X258.425Y-73.875
X258.425Y-92.925
X258.425Y-111.975
X258.425Y-131.025
X268.585Y-54.825
X268.585Y-73.875
X268.585Y-92.925
X268.585Y-111.975
X268.585Y-131.025
X277.475Y-54.825
X277.475Y-73.875
X277.475Y-92.925
X277.475Y-111.975
X277.475Y-131.025
X287.635Y-54.825
X287.635Y-73.875
X287.635Y-92.925
X287.635Y-111.975
X287.635Y-131.025
X296.525Y-54.825
X296.525Y-73.875
X296.525Y-92.925
X296.525Y-111.975
X296.525Y-131.025
X306.685Y-54.825
X306.685Y-73.875
X306.685Y-92.925
X306.685Y-111.975
X306.685Y-131.025
T5
X82.53Y-118.96
X82.53Y-138.01
X99.199Y-118.96
X99.199Y-124.04
X118.249Y-118.96
X118.249Y-124.04
X123.011Y-118.96
X123.011Y-124.04
X137.299Y-118.96
X137.299Y-124.04
X142.061Y-118.96
X142.061Y-124.04
X161.111Y-118.96
X161.111Y-124.04
X177.78Y-118.96
X177.78Y-138.01
T6
X25.38Y-54.825
X25.38Y-73.875
X25.38Y-92.925
X25.38Y-111.975
X25.38Y-131.025
X44.43Y-54.825
X44.43Y-73.875
X44.43Y-92.925
X44.43Y-111.975
X44.43Y-131.025
X63.48Y-54.825
X63.48Y-73.875
X63.48Y-92.925
X63.48Y-111.975
X63.48Y-131.025
X82.53Y-54.825
X82.53Y-73.875
X82.53Y-92.925
X82.53Y-103.72
X82.53Y-111.975
X82.53Y-122.77
X82.53Y-131.025
X99.199Y-103.72
X99.199Y-139.28
X101.58Y-54.825
X101.58Y-73.875
X101.58Y-92.925
X101.58Y-111.975
X101.58Y-131.025
X111.105Y-111.975
X111.105Y-131.025
X118.249Y-103.72
X118.249Y-139.28
X120.63Y-54.825
X120.63Y-73.875
X120.63Y-92.925
X120.63Y-111.975
X123.011Y-103.72
X123.011Y-139.28
X130.155Y-111.975
X130.155Y-131.025
X137.299Y-103.72
X137.299Y-139.28
X139.68Y-54.825
X139.68Y-73.875
X139.68Y-92.925
X139.68Y-111.975
X142.061Y-103.72
X142.061Y-139.28
X149.205Y-111.975
X149.205Y-131.025
X158.73Y-54.825
X158.73Y-73.875
X158.73Y-92.925
X158.73Y-111.975
X158.73Y-131.025
X161.111Y-103.72
X161.111Y-139.28
X177.78Y-54.825
X177.78Y-73.875
X177.78Y-92.925
X177.78Y-103.72
X177.78Y-111.975
X177.78Y-122.77
X177.78Y-131.025
X196.83Y-54.825
X196.83Y-73.875
X196.83Y-92.925
X196.83Y-111.975
X196.83Y-131.025
X215.88Y-54.825
X215.88Y-73.875
X215.88Y-92.925
X215.88Y-111.975
X215.88Y-131.025
X234.93Y-54.825
X234.93Y-73.875
X234.93Y-92.925
X234.93Y-111.975
X234.93Y-131.025
X263.505Y-54.825
X263.505Y-73.875
X263.505Y-92.925
X263.505Y-111.975
X263.505Y-131.025
X282.555Y-54.825
X282.555Y-73.875
X282.555Y-92.925
X282.555Y-111.975
X282.555Y-131.025
X301.605Y-54.825
X301.605Y-73.875
X301.605Y-92.925
X301.605Y-111.975
X301.605Y-131.025
T3
G00X262.855Y-49.225
M15
G01X264.155Y-49.225
M16
G05
G00X262.855Y-60.425
M15
G01X264.155Y-60.425
M16
G05
G00X262.855Y-68.275
M15
G01X264.155Y-68.275
M16
G05
G00X262.855Y-79.475
M15
G01X264.155Y-79.475
M16
G05
G00X300.955Y-49.225
M15
G01X302.255Y-49.225
M16
G05
G00X300.955Y-60.425
M15
G01X302.255Y-60.425
M16
G05
G00X300.955Y-68.275
M15
G01X302.255Y-68.275
M16
G05
G00X300.955Y-79.475
M15
G01X302.255Y-79.475
M16
G05
T0
M30
