%TF.GenerationSoftware,KiCad,Pcbnew,(6.0.7)*%
%TF.CreationDate,2022-09-06T15:34:50+02:00*%
%TF.ProjectId,rp2040,72703230-3430-42e6-9b69-6361645f7063,Rev1.0*%
%TF.SameCoordinates,Original*%
%TF.FileFunction,Soldermask,Top*%
%TF.FilePolarity,Negative*%
%FSLAX46Y46*%
G04 Gerber Fmt 4.6, Leading zero omitted, Abs format (unit mm)*
G04 Created by KiCad (PCBNEW (6.0.7)) date 2022-09-06 15:34:50*
%MOMM*%
%LPD*%
G01*
G04 APERTURE LIST*
%ADD10C,3.048000*%
%ADD11C,3.987800*%
%ADD12C,1.750000*%
%ADD13R,3.200000X2.000000*%
%ADD14R,1.800000X2.000000*%
%ADD15R,2.000000X2.000000*%
%ADD16C,2.000000*%
%ADD17R,1.000000X1.000000*%
%ADD18O,1.000000X1.000000*%
%ADD19C,0.787400*%
%ADD20R,1.700000X1.700000*%
%ADD21O,1.700000X1.700000*%
%ADD22C,0.650000*%
%ADD23O,1.000000X2.100000*%
%ADD24O,1.000000X1.600000*%
G04 APERTURE END LIST*
D10*
%TO.C,REF\u002A\u002A*%
X82530000Y-138010000D03*
D11*
X177780000Y-122770000D03*
D10*
X177780000Y-138010000D03*
D11*
X82530000Y-122770000D03*
%TD*%
D12*
%TO.C,SW_2*%
X49510000Y-54825000D03*
X39350000Y-54825000D03*
D11*
X44430000Y-54825000D03*
%TD*%
D12*
%TO.C,SW_15*%
X306685000Y-54825000D03*
X296525000Y-54825000D03*
D11*
X301605000Y-54825000D03*
%TD*%
D12*
%TO.C,SW55*%
X277475000Y-92925000D03*
X287635000Y-92925000D03*
D11*
X282555000Y-92925000D03*
%TD*%
D12*
%TO.C,SW17*%
X87610000Y-131025000D03*
X77450000Y-131025000D03*
D11*
X82530000Y-131025000D03*
%TD*%
D12*
%TO.C,SW59*%
X306685000Y-92925000D03*
X296525000Y-92925000D03*
D11*
X301605000Y-92925000D03*
%TD*%
D13*
%TO.C,SWrot_1_1*%
X301605000Y-79475000D03*
D14*
X301005000Y-68275000D03*
D15*
X294105000Y-71375000D03*
D16*
X294105000Y-76375000D03*
X294105000Y-73875000D03*
X308605000Y-76375000D03*
X308605000Y-71375000D03*
%TD*%
D12*
%TO.C,SW_1*%
X30460000Y-54825000D03*
D11*
X25380000Y-54825000D03*
D12*
X20300000Y-54825000D03*
%TD*%
%TO.C,SW_5*%
X106660000Y-54825000D03*
X96500000Y-54825000D03*
D11*
X101580000Y-54825000D03*
%TD*%
%TO.C,SW8*%
X44430000Y-131025000D03*
D12*
X39350000Y-131025000D03*
X49510000Y-131025000D03*
%TD*%
%TO.C,SW_4*%
X77450000Y-54825000D03*
X87610000Y-54825000D03*
D11*
X82530000Y-54825000D03*
%TD*%
D12*
%TO.C,SW52*%
X258425000Y-111975000D03*
D11*
X263505000Y-111975000D03*
D12*
X268585000Y-111975000D03*
%TD*%
%TO.C,SW_10*%
X191750000Y-54825000D03*
D11*
X196830000Y-54825000D03*
D12*
X201910000Y-54825000D03*
%TD*%
D11*
%TO.C,REF\u002A\u002A*%
X123011250Y-103720000D03*
X99198750Y-103720000D03*
D10*
X123011250Y-118960000D03*
X99198750Y-118960000D03*
%TD*%
D17*
%TO.C,J4*%
X225420000Y-68360000D03*
%TD*%
D12*
%TO.C,SW19*%
X106660000Y-92925000D03*
X96500000Y-92925000D03*
D11*
X101580000Y-92925000D03*
%TD*%
%TO.C,REF\u002A\u002A*%
X161111250Y-139280000D03*
X137298750Y-139280000D03*
D10*
X161111250Y-124040000D03*
X137298750Y-124040000D03*
%TD*%
D12*
%TO.C,SW54*%
X287635000Y-73875000D03*
X277475000Y-73875000D03*
D11*
X282555000Y-73875000D03*
%TD*%
%TO.C,SW27*%
X139680000Y-92925000D03*
D12*
X134600000Y-92925000D03*
X144760000Y-92925000D03*
%TD*%
%TO.C,SW18*%
X106660000Y-73875000D03*
D11*
X101580000Y-73875000D03*
D12*
X96500000Y-73875000D03*
%TD*%
D11*
%TO.C,SW61*%
X301605000Y-131025000D03*
D12*
X306685000Y-131025000D03*
X296525000Y-131025000D03*
%TD*%
%TO.C,SW29*%
X135235000Y-131025000D03*
D11*
X130155000Y-131025000D03*
D12*
X125075000Y-131025000D03*
%TD*%
D11*
%TO.C,SW53*%
X263505000Y-131025000D03*
D12*
X268585000Y-131025000D03*
X258425000Y-131025000D03*
%TD*%
%TO.C,SW49*%
X229850000Y-131025000D03*
X240010000Y-131025000D03*
D11*
X234930000Y-131025000D03*
%TD*%
D12*
%TO.C,SW43*%
X220960000Y-92925000D03*
D11*
X215880000Y-92925000D03*
D12*
X210800000Y-92925000D03*
%TD*%
D11*
%TO.C,SW40*%
X196830000Y-111975000D03*
D12*
X191750000Y-111975000D03*
X201910000Y-111975000D03*
%TD*%
%TO.C,SW26*%
X134600000Y-73875000D03*
X144760000Y-73875000D03*
D11*
X139680000Y-73875000D03*
%TD*%
D12*
%TO.C,SW29_3*%
X154285000Y-111975000D03*
D11*
X149205000Y-111975000D03*
D12*
X144125000Y-111975000D03*
%TD*%
D11*
%TO.C,SW_8*%
X158730000Y-54825000D03*
D12*
X163810000Y-54825000D03*
X153650000Y-54825000D03*
%TD*%
%TO.C,SW56*%
X287635000Y-111975000D03*
X277475000Y-111975000D03*
D11*
X282555000Y-111975000D03*
%TD*%
D12*
%TO.C,SW14*%
X87610000Y-73875000D03*
D11*
X82530000Y-73875000D03*
D12*
X77450000Y-73875000D03*
%TD*%
%TO.C,SW33*%
X163810000Y-131025000D03*
X153650000Y-131025000D03*
D11*
X158730000Y-131025000D03*
%TD*%
%TO.C,SW_6*%
X120630000Y-54825000D03*
D12*
X125710000Y-54825000D03*
X115550000Y-54825000D03*
%TD*%
%TO.C,SW60*%
X296525000Y-111975000D03*
D11*
X301605000Y-111975000D03*
D12*
X306685000Y-111975000D03*
%TD*%
D11*
%TO.C,SW34*%
X177780000Y-73875000D03*
D12*
X172700000Y-73875000D03*
X182860000Y-73875000D03*
%TD*%
D11*
%TO.C,SW29_2*%
X130155000Y-111975000D03*
D12*
X135235000Y-111975000D03*
X125075000Y-111975000D03*
%TD*%
%TO.C,SW_9*%
X182860000Y-54825000D03*
D11*
X177780000Y-54825000D03*
D12*
X172700000Y-54825000D03*
%TD*%
D11*
%TO.C,SW47*%
X234930000Y-92925000D03*
D12*
X229850000Y-92925000D03*
X240010000Y-92925000D03*
%TD*%
%TO.C,SW51*%
X268585000Y-92925000D03*
X258425000Y-92925000D03*
D11*
X263505000Y-92925000D03*
%TD*%
D12*
%TO.C,SW29_1*%
X144125000Y-131025000D03*
D11*
X149205000Y-131025000D03*
D12*
X154285000Y-131025000D03*
%TD*%
%TO.C,SW1*%
X30460000Y-73875000D03*
X20300000Y-73875000D03*
D11*
X25380000Y-73875000D03*
%TD*%
D12*
%TO.C,SW22*%
X125710000Y-73875000D03*
D11*
X120630000Y-73875000D03*
D12*
X115550000Y-73875000D03*
%TD*%
D11*
%TO.C,SW36*%
X177780000Y-111975000D03*
D12*
X172700000Y-111975000D03*
X182860000Y-111975000D03*
%TD*%
D11*
%TO.C,SW7*%
X44430000Y-111975000D03*
D12*
X39350000Y-111975000D03*
X49510000Y-111975000D03*
%TD*%
D11*
%TO.C,SW_13*%
X263505000Y-54825000D03*
D12*
X258425000Y-54825000D03*
X268585000Y-54825000D03*
%TD*%
%TO.C,SW45*%
X210800000Y-131025000D03*
X220960000Y-131025000D03*
D11*
X215880000Y-131025000D03*
%TD*%
D12*
%TO.C,SW23*%
X115550000Y-92925000D03*
D11*
X120630000Y-92925000D03*
D12*
X125710000Y-92925000D03*
%TD*%
D10*
%TO.C,REF\u002A\u002A*%
X118248750Y-118960000D03*
D11*
X118248750Y-103720000D03*
X142061250Y-103720000D03*
D10*
X142061250Y-118960000D03*
%TD*%
D12*
%TO.C,SW35*%
X172700000Y-92925000D03*
D11*
X177780000Y-92925000D03*
D12*
X182860000Y-92925000D03*
%TD*%
D11*
%TO.C,SW24*%
X120630000Y-111975000D03*
D12*
X115550000Y-111975000D03*
X125710000Y-111975000D03*
%TD*%
%TO.C,SW46*%
X229850000Y-73875000D03*
X240010000Y-73875000D03*
D11*
X234930000Y-73875000D03*
%TD*%
D12*
%TO.C,SW30*%
X153650000Y-73875000D03*
D11*
X158730000Y-73875000D03*
D12*
X163810000Y-73875000D03*
%TD*%
D11*
%TO.C,SW6*%
X44430000Y-92925000D03*
D12*
X39350000Y-92925000D03*
X49510000Y-92925000D03*
%TD*%
%TO.C,SW12*%
X58400000Y-131025000D03*
X68560000Y-131025000D03*
D11*
X63480000Y-131025000D03*
%TD*%
D12*
%TO.C,SW_12*%
X229850000Y-54825000D03*
D11*
X234930000Y-54825000D03*
D12*
X240010000Y-54825000D03*
%TD*%
%TO.C,SW9*%
X58400000Y-73875000D03*
X68560000Y-73875000D03*
D11*
X63480000Y-73875000D03*
%TD*%
D12*
%TO.C,SW31*%
X153650000Y-92925000D03*
X163810000Y-92925000D03*
D11*
X158730000Y-92925000D03*
%TD*%
D12*
%TO.C,SW_7*%
X134600000Y-54825000D03*
D11*
X139680000Y-54825000D03*
D12*
X144760000Y-54825000D03*
%TD*%
D17*
%TO.C,J2*%
X225410000Y-63500000D03*
D18*
X225410000Y-64770000D03*
X225410000Y-66040000D03*
%TD*%
D10*
%TO.C,REF\u002A\u002A*%
X137298750Y-118960000D03*
D11*
X137298750Y-103720000D03*
X161111250Y-103720000D03*
D10*
X161111250Y-118960000D03*
%TD*%
D12*
%TO.C,SW15*%
X77450000Y-92925000D03*
D11*
X82530000Y-92925000D03*
D12*
X87610000Y-92925000D03*
%TD*%
%TO.C,SW25*%
X116185000Y-131025000D03*
X106025000Y-131025000D03*
D11*
X111105000Y-131025000D03*
%TD*%
%TO.C,SW4*%
X25380000Y-131025000D03*
D12*
X30460000Y-131025000D03*
X20300000Y-131025000D03*
%TD*%
D11*
%TO.C,REF\u002A\u002A*%
X177780000Y-103720000D03*
D10*
X177780000Y-118960000D03*
X82530000Y-118960000D03*
D11*
X82530000Y-103720000D03*
%TD*%
%TO.C,SW28*%
X139680000Y-111975000D03*
D12*
X144760000Y-111975000D03*
X134600000Y-111975000D03*
%TD*%
D11*
%TO.C,SW5*%
X44430000Y-73875000D03*
D12*
X49510000Y-73875000D03*
X39350000Y-73875000D03*
%TD*%
%TO.C,SW37*%
X182860000Y-131025000D03*
X172700000Y-131025000D03*
D11*
X177780000Y-131025000D03*
%TD*%
D12*
%TO.C,SW42*%
X210800000Y-73875000D03*
X220960000Y-73875000D03*
D11*
X215880000Y-73875000D03*
%TD*%
D12*
%TO.C,SW11*%
X68560000Y-111975000D03*
D11*
X63480000Y-111975000D03*
D12*
X58400000Y-111975000D03*
%TD*%
%TO.C,SW58*%
X306685000Y-73875000D03*
X296525000Y-73875000D03*
D11*
X301605000Y-73875000D03*
%TD*%
%TO.C,SW3*%
X25380000Y-111975000D03*
D12*
X20300000Y-111975000D03*
X30460000Y-111975000D03*
%TD*%
D11*
%TO.C,SW39*%
X196830000Y-92925000D03*
D12*
X201910000Y-92925000D03*
X191750000Y-92925000D03*
%TD*%
D19*
%TO.C,REF\u002A\u002A*%
X255210000Y-121476000D03*
X253940000Y-121476000D03*
X252670000Y-121476000D03*
X251400000Y-121476000D03*
X256480000Y-121476000D03*
%TD*%
D11*
%TO.C,SW_3*%
X63480000Y-54825000D03*
D12*
X58400000Y-54825000D03*
X68560000Y-54825000D03*
%TD*%
D11*
%TO.C,SW21*%
X101580000Y-131025000D03*
D12*
X96500000Y-131025000D03*
X106660000Y-131025000D03*
%TD*%
D14*
%TO.C,SWrot_2_2*%
X262905000Y-49225000D03*
D13*
X263505000Y-60425000D03*
D15*
X256005000Y-52325000D03*
D16*
X256005000Y-57325000D03*
X256005000Y-54825000D03*
X270505000Y-57325000D03*
X270505000Y-52325000D03*
%TD*%
D12*
%TO.C,SW_14*%
X287635000Y-54825000D03*
X277475000Y-54825000D03*
D11*
X282555000Y-54825000D03*
%TD*%
D12*
%TO.C,SW38*%
X191750000Y-73875000D03*
D11*
X196830000Y-73875000D03*
D12*
X201910000Y-73875000D03*
%TD*%
D14*
%TO.C,SWrot_1*%
X301005000Y-49225000D03*
D13*
X301605000Y-60425000D03*
D15*
X294105000Y-52325000D03*
D16*
X294105000Y-57325000D03*
X294105000Y-54825000D03*
X308605000Y-57325000D03*
X308605000Y-52325000D03*
%TD*%
D11*
%TO.C,SW25_1*%
X111105000Y-111975000D03*
D12*
X116185000Y-111975000D03*
X106025000Y-111975000D03*
%TD*%
D11*
%TO.C,SW20*%
X101580000Y-111975000D03*
D12*
X96500000Y-111975000D03*
X106660000Y-111975000D03*
%TD*%
%TO.C,SW10*%
X58400000Y-92925000D03*
X68560000Y-92925000D03*
D11*
X63480000Y-92925000D03*
%TD*%
%TO.C,SW16*%
X82530000Y-111975000D03*
D12*
X87610000Y-111975000D03*
X77450000Y-111975000D03*
%TD*%
%TO.C,SW2*%
X30460000Y-92925000D03*
D11*
X25380000Y-92925000D03*
D12*
X20300000Y-92925000D03*
%TD*%
%TO.C,SW50*%
X268585000Y-73875000D03*
D11*
X263505000Y-73875000D03*
D12*
X258425000Y-73875000D03*
%TD*%
D11*
%TO.C,SW44*%
X215880000Y-111975000D03*
D12*
X220960000Y-111975000D03*
X210800000Y-111975000D03*
%TD*%
D11*
%TO.C,SW_11*%
X215880000Y-54825000D03*
D12*
X210800000Y-54825000D03*
X220960000Y-54825000D03*
%TD*%
D19*
%TO.C,REF\u002A\u002A*%
X241570000Y-121450000D03*
X245380000Y-121450000D03*
X246650000Y-121450000D03*
X242840000Y-121450000D03*
X244110000Y-121450000D03*
%TD*%
D11*
%TO.C,SW41*%
X196830000Y-131025000D03*
D12*
X201910000Y-131025000D03*
X191750000Y-131025000D03*
%TD*%
D10*
%TO.C,REF\u002A\u002A*%
X118248750Y-124040000D03*
D11*
X118248750Y-139280000D03*
X142061250Y-139280000D03*
D10*
X142061250Y-124040000D03*
%TD*%
D13*
%TO.C,SWrot_2*%
X263505000Y-79475000D03*
D15*
X262905000Y-68275000D03*
X256005000Y-71375000D03*
D16*
X256005000Y-76375000D03*
X256005000Y-73875000D03*
X270505000Y-76375000D03*
X270505000Y-71375000D03*
%TD*%
D10*
%TO.C,REF\u002A\u002A*%
X99198750Y-124040000D03*
D11*
X123011250Y-139280000D03*
D10*
X123011250Y-124040000D03*
D11*
X99198750Y-139280000D03*
%TD*%
D12*
%TO.C,SW32*%
X163810000Y-111975000D03*
D11*
X158730000Y-111975000D03*
D12*
X153650000Y-111975000D03*
%TD*%
%TO.C,SW48*%
X229850000Y-111975000D03*
D11*
X234930000Y-111975000D03*
D12*
X240010000Y-111975000D03*
%TD*%
%TO.C,SW57*%
X287635000Y-131025000D03*
X277475000Y-131025000D03*
D11*
X282555000Y-131025000D03*
%TD*%
D20*
%TO.C,J1*%
X238600000Y-102425000D03*
D21*
X236060000Y-102425000D03*
X233520000Y-102425000D03*
X230980000Y-102425000D03*
X228440000Y-102425000D03*
%TD*%
D22*
%TO.C,J0*%
X56820000Y-47230000D03*
X51040000Y-47230000D03*
D23*
X58250000Y-47760000D03*
D24*
X58250000Y-43580000D03*
X49610000Y-43580000D03*
D23*
X49610000Y-47760000D03*
%TD*%
M02*
